<?xml version="1.0" encoding="UTF-8"?>
<!DOCTYPE svg PUBLIC "-//W3C//DTD SVG 1.1//EN" "http://www.w3.org/Graphics/SVG/1.1/DTD/svg11.dtd">
<!-- Creator: CorelDRAW -->
<svg xmlns="http://www.w3.org/2000/svg" xml:space="preserve" width="2048px" height="2048px" style="shape-rendering:geometricPrecision; text-rendering:geometricPrecision; image-rendering:optimizeQuality; fill-rule:evenodd; clip-rule:evenodd"
viewBox="0 0 2048 2048"
 xmlns:xlink="http://www.w3.org/1999/xlink">
 <defs>
  <style type="text/css">
   <![CDATA[
    .fil2 {fill:none}
    .fil7 {fill:#3E4041}
    .fil5 {fill:#6D6561}
    .fil1 {fill:#7B1FA2}
    .fil0 {fill:#AB47BC}
    .fil4 {fill:#B3A298}
    .fil8 {fill:#CABCB3}
    .fil6 {fill:#EDE7D6}
    .fil9 {fill:#FEFEFE}
    .fil3 {fill:#B3A298;fill-rule:nonzero}
   ]]>
  </style>
   <clipPath id="id0">
    <path d="M1024 -0.0011811c565.539,0 1024,458.462 1024,1024 0,565.539 -458.462,1024 -1024,1024 -565.539,0 -1024,-458.462 -1024,-1024 0,-565.539 458.462,-1024 1024,-1024z"/>
   </clipPath>
 </defs>
 <g id="Layer_x0020_1">
  <metadata id="CorelCorpID_0Corel-Layer"/>
  <path class="fil0" d="M1024 -0.0011811c565.539,0 1024,458.462 1024,1024 0,565.539 -458.462,1024 -1024,1024 -565.539,0 -1024,-458.462 -1024,-1024 0,-565.539 458.462,-1024 1024,-1024z"/>
  <g style="clip-path:url(#id0)">
   <g id="_300480032">
    <g>
     <path id="_3071089841" class="fil1" d="M1866.48 2241.02l0 0zm-1135.88 -1135.88l0 0z"/>
     <polygon id="_307109200" class="fil1" points="776.81,470.302 1912.69,1606.18 1915.2,1609.18 1917.8,1612.8 781.922,476.921 779.323,473.294 "/>
     <polygon id="_307110472" class="fil1" points="1094.72,864.275 2230.6,2000.16 2231.46,2001.09 2232.34,2002.02 2233.22,2002.96 2234.11,2003.91 2235.02,2004.86 2235.93,2005.82 1100.05,869.938 1099.14,868.978 1098.23,868.025 1097.34,867.077 1096.45,866.137 1095.58,865.203 "/>
     <polygon id="_307110592" class="fil1" points="1058.52,782.075 2194.4,1917.96 2193.86,1918.49 2193.31,1919.23 2192.77,1920.14 2192.24,1921.17 2191.74,1922.3 2191.27,1923.47 2190.86,1924.64 2190.5,1925.79 2190.21,1926.86 2190.01,1927.82 2189.9,1928.62 2189.89,1929.23 2190.01,1929.61 1054.12,793.73 1054.01,793.351 1054.02,792.738 1054.13,791.933 1054.33,790.974 1054.62,789.904 1054.98,788.76 1055.39,787.583 1055.86,786.414 1056.36,785.292 1056.89,784.256 1057.43,783.349 1057.98,782.608 "/>
     <path id="_307110616" class="fil1" d="M2416.76 2357l0 0zm-1135.88 -1135.88l0 0z"/>
     <path id="_307110976" class="fil1" d="M2400.44 2450.59l0 0zm-1135.88 -1135.88l0 0z"/>
     <polygon id="_307111744" class="fil1" points="795.338,489.064 1931.22,1624.95 1934.42,1628.46 1937.56,1632.12 1940.62,1635.91 1943.61,1639.81 1946.52,1643.79 1949.35,1647.84 1952.09,1651.94 1954.75,1656.05 1957.31,1660.17 1959.77,1664.28 1962.13,1668.34 1964.39,1672.34 1966.54,1676.27 1968.57,1680.09 1970.49,1683.78 1972.3,1687.34 1973.98,1690.73 1975.53,1693.94 1976.95,1696.94 1978.24,1699.71 1979.39,1702.23 1980.4,1704.49 1981.26,1706.45 1981.98,1708.11 1982.54,1709.43 1982.94,1710.41 1983.19,1711 1983.27,1711.21 847.393,575.325 847.31,575.121 847.064,574.523 846.657,573.551 846.095,572.227 845.379,570.572 844.516,568.606 843.507,566.35 842.357,563.826 841.068,561.054 839.646,558.054 838.094,554.848 836.415,551.457 834.614,547.902 832.692,544.204 830.655,540.383 828.506,536.461 826.249,532.457 823.888,528.394 821.425,524.291 818.866,520.171 816.213,516.054 813.471,511.959 810.643,507.91 807.732,503.926 804.742,500.028 801.677,496.238 798.542,492.577 "/>
     <polygon id="_307111000" class="fil1" points="1055.26,793.071 2191.14,1928.95 2193.14,1931.32 2195.07,1933.69 2196.95,1936.05 2198.78,1938.41 2200.55,1940.76 2202.27,1943.1 2203.93,1945.43 2205.54,1947.76 2207.1,1950.08 2208.61,1952.39 2210.07,1954.7 2211.48,1956.99 2212.85,1959.27 2214.16,1961.55 2215.43,1963.81 2216.65,1966.06 2217.83,1968.3 2218.96,1970.53 2220.05,1972.74 2221.1,1974.94 2222.1,1977.13 2223.07,1979.3 2223.99,1981.46 2224.87,1983.61 2225.72,1985.73 2226.52,1987.85 2227.29,1989.94 2228.03,1992.02 2228.72,1994.08 2229.38,1996.13 2230.01,1998.15 2230.6,2000.16 1094.72,864.275 1094.13,862.268 1093.5,860.244 1092.84,858.199 1092.14,856.138 1091.41,854.059 1090.64,851.964 1089.84,849.851 1088.99,847.723 1088.11,845.579 1087.19,843.421 1086.22,841.247 1085.22,839.059 1084.17,836.859 1083.08,834.644 1081.95,832.417 1080.77,830.177 1079.55,827.926 1078.28,825.664 1076.96,823.391 1075.6,821.108 1074.19,818.814 1072.73,816.512 1071.22,814.199 1069.66,811.88 1068.05,809.552 1066.38,807.216 1064.67,804.873 1062.9,802.524 1061.07,800.169 1059.19,797.808 1057.26,795.441 "/>
     <polygon id="_307111432" class="fil1" points="751.071,816.745 1886.95,1952.63 1882.27,1950.13 1877.95,1947.41 1873.97,1944.46 1870.34,1941.3 734.457,805.417 738.093,808.575 742.067,811.524 746.389,814.251 "/>
     <polygon id="_307111504" class="fil1" points="1237.47,1422.78 2373.35,2558.67 2373.65,2560.11 2374,2561.53 2374.4,2562.95 2374.84,2564.34 2375.33,2565.73 2375.87,2567.1 2376.46,2568.45 2377.1,2569.79 1241.22,1433.91 1240.58,1432.57 1239.99,1431.21 1239.45,1429.84 1238.96,1428.46 1238.52,1427.06 1238.12,1425.65 1237.77,1424.23 "/>
     <polygon id="_307111576" class="fil1" points="708.008,953.117 1843.89,2089 1843.28,2090.05 1842.75,2091.01 1842.29,2091.86 1841.92,2092.58 1841.63,2093.17 1841.42,2093.61 1841.3,2093.88 1841.25,2093.97 705.371,958.089 705.414,957.995 705.54,957.724 705.749,957.288 706.041,956.702 706.413,955.978 706.866,955.131 707.397,954.172 "/>
     <polygon id="_307111360" class="fil1" points="1166.39,1511.81 2302.28,2647.69 2296.89,2649.49 2291.78,2651.38 2286.95,2653.33 2282.37,2655.35 2278.03,2657.43 2273.92,2659.56 2270.03,2661.74 2266.34,2663.95 2262.83,2666.2 2259.49,2668.47 2256.3,2670.76 2253.26,2673.06 2250.34,2675.37 2247.54,2677.67 2244.84,2679.97 2242.21,2682.26 2239.66,2684.52 2237.16,2686.76 2234.71,2688.96 2232.28,2691.13 2229.86,2693.24 2227.44,2695.31 2225,2697.31 2222.52,2699.25 2220.01,2701.11 2217.43,2702.9 2214.78,2704.6 2212.03,2706.2 2209.19,2707.71 2206.22,2709.11 2203.13,2710.4 2199.88,2711.57 1064,1575.69 1067.24,1574.52 1070.34,1573.23 1073.31,1571.83 1076.15,1570.32 1078.89,1568.71 1081.55,1567.02 1084.13,1565.23 1086.64,1563.37 1089.11,1561.43 1091.55,1559.43 1093.98,1557.36 1096.4,1555.24 1098.83,1553.08 1101.28,1550.88 1103.78,1548.64 1106.33,1546.37 1108.95,1544.09 1111.66,1541.79 1114.46,1539.48 1117.38,1537.18 1120.42,1534.87 1123.61,1532.58 1126.95,1530.31 1130.46,1528.07 1134.15,1525.85 1138.04,1523.68 1142.15,1521.55 1146.49,1519.47 1151.06,1517.45 1155.9,1515.5 1161,1513.61 "/>
     <polygon id="_307111408" class="fil1" points="1064,1575.69 2199.88,2711.57 2196.57,2712.56 2193.29,2713.34 2190.05,2713.91 2186.85,2714.29 2183.69,2714.48 2180.58,2714.5 2177.53,2714.37 2174.54,2714.09 2171.61,2713.68 2168.75,2713.15 2165.97,2712.51 2163.26,2711.78 2160.65,2710.96 2158.11,2710.07 2155.68,2709.12 2153.34,2708.12 2151.11,2707.09 2148.98,2706.04 2146.97,2704.98 2145.08,2703.91 2143.31,2702.87 2141.67,2701.85 2140.16,2700.87 2138.79,2699.94 2137.57,2699.07 2136.49,2698.28 2135.56,2697.58 2134.79,2696.97 2134.19,2696.49 2133.75,2696.12 2133.48,2695.89 2133.39,2695.81 997.507,1559.93 997.596,1560.01 997.865,1560.24 998.304,1560.6 998.91,1561.09 999.679,1561.69 1000.61,1562.4 1001.69,1563.19 1002.91,1564.05 1004.28,1564.98 1005.79,1565.97 1007.43,1566.99 1009.2,1568.03 1011.09,1569.09 1013.1,1570.16 1015.23,1571.21 1017.46,1572.24 1019.8,1573.24 1022.23,1574.19 1024.76,1575.08 1027.38,1575.89 1030.09,1576.63 1032.87,1577.27 1035.73,1577.8 1038.66,1578.21 1041.65,1578.49 1044.7,1578.62 1047.81,1578.6 1050.97,1578.4 1054.17,1578.03 1057.41,1577.46 1060.69,1576.68 "/>
     <polygon id="_307111624" class="fil1" points="997.507,1559.93 2133.39,2695.81 2133.33,2695.87 2133.15,2696.04 2132.86,2696.3 2132.45,2696.67 2131.92,2697.12 2131.28,2697.66 2130.53,2698.27 2129.66,2698.95 2128.67,2699.7 2127.57,2700.5 2126.37,2701.35 2125.04,2702.25 2123.61,2703.19 2122.06,2704.15 2120.41,2705.14 2118.64,2706.15 2116.77,2707.17 2114.78,2708.19 2112.69,2709.22 2110.49,2710.23 2108.19,2711.23 2105.77,2712.21 2103.25,2713.17 2100.63,2714.09 2097.9,2714.97 2095.06,2715.8 2092.12,2716.58 2089.08,2717.29 2085.93,2717.95 2082.68,2718.53 2079.33,2719.02 2075.88,2719.44 939.999,1583.56 943.451,1583.14 946.801,1582.64 950.05,1582.06 953.195,1581.41 956.239,1580.69 959.179,1579.91 962.015,1579.08 964.745,1578.2 967.371,1577.29 969.891,1576.33 972.304,1575.35 974.612,1574.35 976.811,1573.34 978.903,1572.31 980.887,1571.29 982.762,1570.27 984.528,1569.26 986.182,1568.27 987.727,1567.3 989.161,1566.37 990.484,1565.47 991.693,1564.62 992.791,1563.81 993.774,1563.07 994.645,1562.39 995.401,1561.77 996.042,1561.24 996.568,1560.79 996.978,1560.42 997.272,1560.15 997.448,1559.99 "/>
     <polygon id="_307111648" class="fil1" points="939.999,1583.56 2075.88,2719.44 2072.41,2719.73 2069,2719.87 2065.66,2719.86 2062.4,2719.72 2059.2,2719.46 2056.08,2719.09 2053.05,2718.6 2050.09,2718.02 2047.22,2717.36 2044.44,2716.62 2041.75,2715.81 2039.16,2714.94 2036.66,2714.02 2034.26,2713.07 2031.97,2712.08 2029.78,2711.07 2027.7,2710.05 2025.74,2709.03 2023.89,2708.02 2022.16,2707.02 2020.55,2706.05 2019.06,2705.11 2017.7,2704.22 2016.48,2703.38 2015.38,2702.61 2014.42,2701.91 2013.6,2701.29 2012.93,2700.76 2012.39,2700.33 2012.01,2700.02 2011.78,2699.82 2011.7,2699.75 875.819,1563.87 875.897,1563.94 876.129,1564.13 876.513,1564.45 877.045,1564.88 877.722,1565.4 878.541,1566.02 879.499,1566.73 880.594,1567.5 881.822,1568.34 883.181,1569.23 884.666,1570.16 886.276,1571.14 888.008,1572.13 889.857,1573.15 891.823,1574.17 893.9,1575.19 896.087,1576.2 898.38,1577.19 900.778,1578.14 903.275,1579.06 905.87,1579.93 908.559,1580.74 911.34,1581.48 914.211,1582.14 917.166,1582.72 920.203,1583.2 923.32,1583.58 926.515,1583.84 929.783,1583.98 933.121,1583.98 936.527,1583.85 "/>
     <polygon id="_307111312" class="fil1" points="875.819,1563.87 2011.7,2699.75 2009.16,2702.24 2006.53,2704.56 2003.83,2706.69 2001.06,2708.64 1998.22,2710.43 1995.32,2712.04 1992.36,2713.49 1989.35,2714.77 1986.29,2715.89 1983.18,2716.85 1980.04,2717.65 1976.85,2718.31 1973.64,2718.81 1970.4,2719.16 1967.13,2719.38 1963.85,2719.45 1960.55,2719.38 1957.25,2719.17 1953.93,2718.84 1950.62,2718.37 1947.31,2717.78 1944.01,2717.06 1940.72,2716.22 1937.45,2715.26 1934.2,2714.19 1930.97,2713 1927.77,2711.71 1924.61,2710.31 1921.49,2708.8 1918.41,2707.2 1915.38,2705.49 1912.4,2703.69 776.514,1567.81 779.495,1569.61 782.528,1571.31 785.608,1572.92 788.731,1574.43 791.893,1575.83 795.089,1577.12 798.316,1578.31 801.568,1579.38 804.839,1580.34 808.129,1581.18 811.43,1581.89 814.739,1582.49 818.052,1582.95 821.364,1583.29 824.671,1583.49 827.968,1583.56 831.251,1583.49 834.516,1583.28 837.757,1582.93 840.972,1582.42 844.155,1581.77 847.301,1580.97 850.407,1580 853.469,1578.88 856.481,1577.6 859.439,1576.16 862.34,1574.54 865.178,1572.76 867.949,1570.8 870.649,1568.67 873.275,1566.36 "/>
     <polygon id="_307112320" class="fil1" points="776.514,1567.81 1912.4,2703.69 1909.68,2701.83 1907.43,2699.92 771.544,1564.04 773.799,1565.94 "/>
     <polygon id="_307112152" class="fil1" points="1241.22,1433.91 2377.1,2569.79 2378.44,2572.73 2379.51,2575.65 2380.3,2578.54 2380.83,2581.41 2381.1,2584.25 2381.11,2587.06 2380.86,2589.85 2380.36,2592.61 2379.62,2595.33 2378.63,2598.03 2377.39,2600.69 2375.92,2603.32 2374.22,2605.91 2372.29,2608.48 2370.13,2611 2367.75,2613.49 2365.15,2615.95 2362.33,2618.36 2359.3,2620.74 2356.06,2623.07 2352.62,2625.37 2348.98,2627.62 2345.14,2629.84 2341.1,2632 2336.88,2634.13 2332.47,2636.21 2327.87,2638.24 2323.1,2640.23 2318.15,2642.17 2313.02,2644.06 2307.73,2645.9 2302.28,2647.69 1166.39,1511.81 1171.85,1510.02 1177.14,1508.18 1182.27,1506.28 1187.22,1504.35 1191.99,1502.36 1196.58,1500.33 1201,1498.25 1205.22,1496.12 1209.26,1493.95 1213.1,1491.74 1216.74,1489.49 1220.18,1487.19 1223.42,1484.86 1226.45,1482.48 1229.26,1480.06 1231.87,1477.61 1234.25,1475.12 1236.41,1472.59 1238.34,1470.03 1240.04,1467.44 1241.51,1464.81 1242.74,1462.14 1243.73,1459.45 1244.48,1456.72 1244.98,1453.97 1245.23,1451.18 1245.22,1448.37 1244.95,1445.53 1244.42,1442.66 1243.63,1439.77 1242.56,1436.85 "/>
     <polygon id="_307112344" class="fil1" points="748.414,816.741 1884.3,1952.62 1885.7,1954.17 749.815,818.288 "/>
     <polygon id="_307111984" class="fil1" points="1280.88,1221.11 2416.76,2357 2416.68,2358.3 2416.59,2359.61 2416.5,2360.91 2416.41,2362.22 2416.31,2363.52 2416.21,2364.83 2416.11,2366.13 2416,2367.44 2415.89,2368.74 2415.77,2370.04 2415.65,2371.34 2415.53,2372.64 2415.4,2373.94 2415.27,2375.24 2415.14,2376.54 2415,2377.84 2414.86,2379.14 2414.71,2380.44 2414.57,2381.74 2414.41,2383.04 2414.26,2384.34 2414.1,2385.63 2413.94,2386.93 2413.77,2388.23 2413.6,2389.52 2413.42,2390.82 2413.25,2392.12 2413.06,2393.41 2412.88,2394.71 2412.69,2396 2412.5,2397.3 2412.3,2398.59 1276.42,1262.71 1276.62,1261.41 1276.81,1260.12 1277,1258.82 1277.18,1257.53 1277.37,1256.23 1277.54,1254.94 1277.72,1253.64 1277.89,1252.35 1278.05,1251.05 1278.22,1249.75 1278.38,1248.45 1278.53,1247.16 1278.68,1245.86 1278.83,1244.56 1278.98,1243.26 1279.12,1241.96 1279.26,1240.66 1279.39,1239.36 1279.52,1238.06 1279.65,1236.76 1279.77,1235.46 1279.89,1234.16 1280.01,1232.86 1280.12,1231.55 1280.23,1230.25 1280.33,1228.95 1280.43,1227.64 1280.53,1226.34 1280.62,1225.03 1280.71,1223.73 1280.8,1222.42 "/>
     <path id="_307111792" class="fil1" d="M2003.79 1709.14l0 0zm-1135.88 -1135.88l0 0z"/>
     <polygon id="_307112176" class="fil1" points="927.301,577.394 2063.18,1713.28 2063.33,1713.5 927.453,577.622 "/>
     <polygon id="_307112200" class="fil1" points="1070.71,700.987 2206.59,1836.87 2207.07,1839.15 2207.53,1841.52 2207.96,1843.95 2208.35,1846.46 2208.71,1849.02 2209.04,1851.63 2209.32,1854.29 2209.56,1857 2209.75,1859.73 2209.89,1862.5 2209.98,1865.29 2210.01,1868.09 2209.98,1870.9 2209.9,1873.72 2209.74,1876.54 2209.52,1879.34 2209.23,1882.13 2208.87,1884.9 2208.43,1887.64 2207.91,1890.35 2207.31,1893.02 2206.62,1895.64 2205.85,1898.21 2204.98,1900.72 2204.02,1903.17 2202.96,1905.54 2201.8,1907.84 2200.54,1910.06 2199.17,1912.18 2197.69,1914.21 2196.1,1916.14 2194.4,1917.96 1058.52,782.075 1060.22,780.256 1061.81,778.328 1063.29,776.299 1064.66,774.174 1065.92,771.96 1067.08,769.661 1068.14,767.286 1069.1,764.84 1069.96,762.329 1070.74,759.759 1071.43,757.137 1072.03,754.469 1072.55,751.76 1072.99,749.019 1073.35,746.249 1073.64,743.458 1073.86,740.653 1074.01,737.839 1074.1,735.022 1074.13,732.208 1074.1,729.404 1074.01,726.616 1073.86,723.851 1073.67,721.114 1073.44,718.412 1073.16,715.75 1072.83,713.136 1072.47,710.574 1072.08,708.073 1071.65,705.637 1071.19,703.273 "/>
     <polygon id="_307111840" class="fil1" points="1041.34,478.252 2177.22,1614.13 2178.71,1615.86 2180.06,1617.82 2181.26,1620.01 2182.32,1622.44 2183.24,1625.1 2184.01,1628.01 2184.63,1631.15 2185.11,1634.53 1049.23,498.649 1048.75,495.265 1048.13,492.123 1047.36,489.221 1046.44,486.559 1045.38,484.132 1044.17,481.94 1042.83,479.981 "/>
     <polygon id="_307112272" class="fil1" points="1049.23,498.649 2185.11,1634.53 2186.95,1639.22 2188.49,1644.02 2189.73,1648.91 2190.69,1653.88 2191.38,1658.9 2191.83,1663.97 2192.06,1669.05 2192.07,1674.15 2191.88,1679.23 2191.52,1684.29 2190.99,1689.3 2190.32,1694.26 2189.52,1699.13 2188.6,1703.91 2187.59,1708.58 2186.5,1713.13 2185.35,1717.52 2184.15,1721.76 2182.92,1725.82 2181.68,1729.68 2180.44,1733.33 2179.23,1736.75 2178.05,1739.92 2176.92,1742.84 2175.86,1745.47 2174.89,1747.8 2174.03,1749.83 2173.28,1751.52 2172.67,1752.87 2172.22,1753.85 2171.93,1754.45 2171.83,1754.66 1035.95,618.774 1036.05,618.57 1036.34,617.967 1036.79,616.986 1037.4,615.639 1038.15,613.946 1039.01,611.923 1039.98,609.586 1041.04,606.954 1042.16,604.041 1043.34,600.866 1044.56,597.446 1045.8,593.795 1047.04,589.933 1048.27,585.876 1049.47,581.64 1050.62,577.243 1051.71,572.7 1052.72,568.03 1053.64,563.249 1054.44,558.374 1055.11,553.42 1055.64,548.408 1056,543.35 1056.19,538.265 1056.18,533.171 1055.95,528.084 1055.5,523.021 1054.8,517.999 1053.85,513.032 1052.61,508.141 1051.07,503.341 "/>
     <polygon id="_307112512" class="fil1" points="1035.95,618.774 2171.83,1754.66 2173.4,1757.33 2174.94,1759.98 2176.43,1762.6 2177.88,1765.2 2179.29,1767.77 2180.67,1770.32 2182.01,1772.85 2183.31,1775.34 2184.57,1777.82 2185.8,1780.27 2186.99,1782.69 2188.14,1785.09 2189.26,1787.47 2190.35,1789.82 2191.4,1792.14 2192.41,1794.45 2193.4,1796.73 2194.35,1798.98 2195.27,1801.21 2196.15,1803.42 2197.01,1805.6 2197.83,1807.76 2198.62,1809.9 2199.38,1812.01 2200.11,1814.1 2200.81,1816.16 2201.48,1818.21 2202.13,1820.23 2202.74,1822.22 2203.33,1824.2 2203.89,1826.15 2204.42,1828.07 1068.54,692.19 1068.01,690.263 1067.45,688.313 1066.86,686.34 1066.25,684.344 1065.6,682.325 1064.93,680.282 1064.23,678.217 1063.5,676.128 1062.74,674.015 1061.95,671.88 1061.12,669.72 1060.27,667.537 1059.38,665.33 1058.47,663.099 1057.52,660.844 1056.53,658.565 1055.52,656.262 1054.47,653.936 1053.38,651.584 1052.26,649.209 1051.11,646.809 1049.92,644.384 1048.69,641.934 1047.42,639.461 1046.12,636.963 1044.79,634.439 1043.41,631.891 1042,629.318 1040.55,626.719 1039.05,624.096 1037.52,621.448 "/>
     <polygon id="_307111864" class="fil1" points="1068.54,692.19 2204.42,1828.07 2204.72,1829.17 2205,1830.26 2205.28,1831.36 2205.56,1832.46 2205.82,1833.56 2206.08,1834.66 2206.34,1835.76 2206.59,1836.87 1070.71,700.987 1070.46,699.882 1070.2,698.778 1069.94,697.677 1069.67,696.577 1069.4,695.478 1069.12,694.381 1068.83,693.285 "/>
     <polygon id="_307112896" class="fil1" points="1325.43,1043.77 2461.32,2179.65 2462.75,2181.23 2464.04,2182.94 2465.15,2184.8 2466.09,2186.77 2466.84,2188.86 2467.39,2191.06 1331.51,1055.18 1330.96,1052.98 1330.21,1050.89 1329.27,1048.91 1328.15,1047.06 1326.87,1045.34 "/>
     <path id="_307113088" class="fil1" d="M2299.56 2063.48l0 0zm-1135.88 -1135.88l0 0z"/>
     <path id="_307112656" class="fil1" d="M2256.59 2026.16l0 0zm-1135.88 -1135.88l0 0z"/>
     <polygon id="_307112680" class="fil1" points="1198.08,959.444 2333.96,2095.33 2340.91,2103.11 2347.5,2111.02 2353.72,2119.04 2359.59,2127.18 2365.11,2135.42 2370.3,2143.75 2375.16,2152.15 2379.71,2160.63 2383.95,2169.16 2387.88,2177.74 2391.53,2186.37 2394.9,2195.02 2397.99,2203.69 2400.82,2212.37 2403.39,2221.05 2405.72,2229.72 2407.81,2238.37 2409.67,2246.99 2411.31,2255.57 2412.74,2264.1 2413.96,2272.57 2415,2280.97 2415.85,2289.29 2416.52,2297.51 2417.03,2305.64 2417.37,2313.66 2417.57,2321.56 2417.63,2329.33 1281.75,1193.44 1281.69,1185.68 1281.49,1177.78 1281.14,1169.76 1280.64,1161.63 1279.97,1153.4 1279.12,1145.08 1278.08,1136.69 1276.86,1128.22 1275.43,1119.69 1273.79,1111.11 1271.93,1102.49 1269.84,1093.84 1267.51,1085.17 1264.94,1076.49 1262.11,1067.81 1259.02,1059.14 1255.65,1050.48 1252,1041.86 1248.06,1033.28 1243.83,1024.74 1239.28,1016.27 1234.42,1007.86 1229.23,999.537 1223.7,991.3 1217.84,983.162 1211.62,975.134 1205.03,967.224 "/>
     <polygon id="_307113040" class="fil1" points="1281.75,1193.44 2417.63,2329.33 2417.67,2329.57 2417.69,2330.29 2417.69,2331.41 2417.66,2332.87 2417.62,2334.62 2417.57,2336.58 2417.5,2338.69 2417.43,2340.89 2417.36,2343.11 2417.28,2345.3 2417.2,2347.39 2417.13,2349.31 2417.06,2351 2417.01,2352.41 2416.96,2353.45 2416.93,2354.08 1281.05,1218.2 1281.08,1217.57 1281.13,1216.52 1281.18,1215.12 1281.25,1213.43 1281.32,1211.51 1281.4,1209.42 1281.48,1207.23 1281.55,1205.01 1281.62,1202.8 1281.69,1200.69 1281.74,1198.73 1281.78,1196.99 1281.8,1195.53 1281.81,1194.4 1281.79,1193.69 "/>
     <polygon id="_307112944" class="fil1" points="1281.05,1218.2 2416.93,2354.08 2416.91,2354.5 1281.03,1218.62 "/>
     <polygon id="_307113064" class="fil1" points="1281.03,1218.62 2416.91,2354.5 2416.89,2354.92 1281,1219.03 "/>
     <polygon id="_307112752" class="fil1" points="1281,1219.03 2416.89,2354.92 2416.84,2355.75 1280.96,1219.87 "/>
     <polygon id="_307113184" class="fil1" points="1280.96,1219.87 2416.84,2355.75 2416.81,2356.17 1280.93,1220.28 "/>
     <polygon id="_307112872" class="fil1" points="1280.93,1220.28 2416.81,2356.17 2416.79,2356.58 1280.91,1220.7 "/>
     <polygon id="_307113808" class="fil1" points="1280.91,1220.7 2416.79,2356.58 2416.76,2357 1280.88,1221.11 "/>
     <polygon id="_307113784" class="fil1" points="1331.51,1055.18 2467.39,2191.06 2469,2199.47 2470.53,2207.82 2471.98,2216.11 2473.36,2224.34 2474.65,2232.51 2475.86,2240.62 2476.99,2248.66 2478.03,2256.64 2478.98,2264.56 2479.85,2272.4 2480.63,2280.18 2481.31,2287.89 2481.9,2295.53 2482.4,2303.1 2482.81,2310.59 2483.11,2318.01 2483.32,2325.36 2483.43,2332.63 2483.43,2339.82 2483.34,2346.94 2483.14,2353.98 2482.83,2360.93 2482.42,2367.81 2481.9,2374.6 2481.26,2381.31 2480.52,2387.94 2479.66,2394.48 2478.69,2400.93 2477.61,2407.29 2476.4,2413.57 2475.08,2419.75 2473.64,2425.85 1337.76,1289.97 1339.2,1283.87 1340.52,1277.69 1341.73,1271.41 1342.81,1265.05 1343.78,1258.59 1344.64,1252.05 1345.38,1245.43 1346.01,1238.72 1346.54,1231.93 1346.95,1225.05 1347.25,1218.09 1347.46,1211.06 1347.55,1203.94 1347.55,1196.75 1347.44,1189.48 1347.23,1182.13 1346.92,1174.71 1346.52,1167.21 1346.02,1159.65 1345.43,1152.01 1344.74,1144.3 1343.97,1136.52 1343.1,1128.67 1342.15,1120.76 1341.1,1112.78 1339.98,1104.74 1338.77,1096.63 1337.48,1088.46 1336.1,1080.23 1334.65,1071.94 1333.12,1063.58 "/>
     <polygon id="_307113904" class="fil1" points="1276.42,1262.71 2412.3,2398.59 2412.06,2400.12 2411.82,2401.66 2411.57,2403.19 2411.31,2404.72 2411.05,2406.25 2410.79,2407.77 2410.51,2409.3 2410.23,2410.83 1274.35,1274.94 1274.63,1273.42 1274.9,1271.89 1275.17,1270.36 1275.43,1268.83 1275.69,1267.3 1275.94,1265.77 1276.18,1264.24 "/>
     <polygon id="_307113688" class="fil1" points="1274.35,1274.94 2410.23,2410.83 2409.99,2412.16 2409.74,2413.47 2409.49,2414.77 2409.23,2416.05 2408.98,2417.31 2408.73,2418.55 2408.48,2419.77 2408.22,2420.98 2407.97,2422.17 2407.71,2423.33 2407.46,2424.48 2407.2,2425.61 2406.95,2426.72 2406.7,2427.81 2406.44,2428.88 2406.19,2429.93 1270.31,1294.05 1270.56,1293 1270.82,1291.93 1271.07,1290.84 1271.32,1289.73 1271.58,1288.6 1271.83,1287.45 1272.09,1286.29 1272.34,1285.1 1272.59,1283.89 1272.85,1282.67 1273.1,1281.43 1273.35,1280.16 1273.6,1278.89 1273.86,1277.59 1274.1,1276.28 "/>
     <polygon id="_307113352" class="fil1" points="1270.31,1294.05 2406.19,2429.93 2406.18,2429.97 1270.3,1294.09 "/>
     <polygon id="_307113856" class="fil1" points="1270.3,1294.09 2406.18,2429.97 2406.17,2430.03 1270.29,1294.14 "/>
     <polygon id="_307114024" class="fil1" points="1270.29,1294.14 2406.17,2430.03 2406.14,2430.13 1270.26,1294.24 "/>
     <polygon id="_307113472" class="fil1" points="1270.26,1294.24 2406.14,2430.13 2405.5,2432.73 1269.62,1296.84 "/>
     <polygon id="_307113760" class="fil1" points="1269.62,1296.84 2405.5,2432.73 2405.48,2432.82 1269.59,1296.94 "/>
     <polygon id="_307113568" class="fil1" points="1269.59,1296.94 2405.48,2432.82 2405.45,2432.91 1269.57,1297.03 "/>
     <polygon id="_307114192" class="fil1" points="1269.57,1297.03 2405.45,2432.91 2405.43,2433.01 1269.55,1297.13 "/>
     <polygon id="_307114264" class="fil1" points="1269.55,1297.13 2405.43,2433.01 2405.42,2433.03 1269.54,1297.15 "/>
     <polygon id="_307114624" class="fil1" points="1269.54,1297.15 2405.42,2433.03 2405.4,2433.1 1269.52,1297.22 "/>
     <polygon id="_307114600" class="fil1" points="1269.52,1297.22 2405.4,2433.1 2405.38,2433.19 1269.5,1297.31 "/>
     <polygon id="_307114456" class="fil1" points="1269.5,1297.31 2405.38,2433.19 2405.36,2433.29 1269.47,1297.4 "/>
     <polygon id="_307114744" class="fil1" points="1269.47,1297.4 2405.36,2433.29 2405.33,2433.38 1269.45,1297.5 "/>
     <polygon id="_307114672" class="fil1" points="1269.45,1297.5 2405.33,2433.38 2405.31,2433.47 1269.43,1297.59 "/>
     <polygon id="_307114552" class="fil1" points="1269.43,1297.59 2405.31,2433.47 2404.72,2435.72 1268.84,1299.84 "/>
     <polygon id="_307114696" class="fil1" points="1268.84,1299.84 2404.72,2435.72 2404.7,2435.81 1268.82,1299.92 "/>
     <polygon id="_307114072" class="fil1" points="1268.82,1299.92 2404.7,2435.81 2404.68,2435.89 1268.8,1300.01 "/>
     <polygon id="_307114120" class="fil1" points="1268.8,1300.01 2404.68,2435.89 2404.57,2436.3 1268.69,1300.42 "/>
     <polygon id="_307115392" class="fil1" points="1268.69,1300.42 2404.57,2436.3 2404.46,2436.71 1268.58,1300.82 "/>
     <polygon id="_307115536" class="fil1" points="1268.58,1300.82 2404.46,2436.71 2404.39,2436.97 1268.51,1301.08 "/>
     <polygon id="_307115368" class="fil1" points="1268.51,1301.08 2404.39,2436.97 2404.35,2437.11 1268.47,1301.23 "/>
     <polygon id="_307115248" class="fil1" points="1268.47,1301.23 2404.35,2437.11 2404.24,2437.51 1268.36,1301.63 "/>
     <polygon id="_307115296" class="fil1" points="1268.36,1301.63 2404.24,2437.51 2404.13,2437.92 1268.25,1302.04 "/>
     <polygon id="_307114960" class="fil1" points="1268.25,1302.04 2404.13,2437.92 2404.1,2438.04 1268.22,1302.15 "/>
     <polygon id="_307115032" class="fil1" points="1268.22,1302.15 2404.1,2438.04 2404.02,2438.32 1268.14,1302.44 "/>
     <polygon id="_307114888" class="fil1" points="1268.14,1302.44 2404.02,2438.32 2403.91,2438.73 1268.03,1302.84 "/>
     <polygon id="_307114912" class="fil1" points="1268.03,1302.84 2403.91,2438.73 2403.8,2439.1 1267.92,1303.22 "/>
     <polygon id="_307114936" class="fil1" points="1267.92,1303.22 2403.8,2439.1 2403.8,2439.13 1267.92,1303.25 "/>
     <polygon id="_307116280" class="fil1" points="1267.92,1303.25 2403.8,2439.13 2403.69,2439.53 1267.81,1303.65 "/>
     <polygon id="_307116208" class="fil1" points="1267.81,1303.65 2403.69,2439.53 2403.57,2439.93 1267.69,1304.05 "/>
     <polygon id="_307116088" class="fil1" points="1267.69,1304.05 2403.57,2439.93 2403.51,2440.16 1267.63,1304.28 "/>
     <polygon id="_307116232" class="fil1" points="1267.63,1304.28 2403.51,2440.16 2403.46,2440.33 1267.58,1304.45 "/>
     <polygon id="_307115992" class="fil1" points="1267.58,1304.45 2403.46,2440.33 2403.35,2440.73 1267.47,1304.85 "/>
     <polygon id="_307115656" class="fil1" points="1267.47,1304.85 2403.35,2440.73 2403.24,2441.13 1267.36,1305.25 "/>
     <polygon id="_307116160" class="fil1" points="1267.36,1305.25 2403.24,2441.13 2403.21,2441.22 1267.33,1305.34 "/>
     <polygon id="_307115800" class="fil1" points="1267.33,1305.34 2403.21,2441.22 2403.12,2441.53 1267.24,1305.65 "/>
     <polygon id="_307116136" class="fil1" points="1267.24,1305.65 2403.12,2441.53 2403.01,2441.93 1267.13,1306.05 "/>
     <polygon id="_307115872" class="fil1" points="1267.13,1306.05 2403.01,2441.93 2403,2441.96 1267.12,1306.07 "/>
     <polygon id="_307116832" class="fil1" points="1267.12,1306.07 2403,2441.96 2402.78,2442.73 1266.9,1306.85 "/>
     <polygon id="_307116496" class="fil1" points="1266.9,1306.85 2402.78,2442.73 2402.67,2443.13 1266.79,1307.24 "/>
     <polygon id="_307116568" class="fil1" points="1266.79,1307.24 2402.67,2443.13 2402.61,2443.33 1266.73,1307.45 "/>
     <polygon id="_307116928" class="fil1" points="1266.73,1307.45 2402.61,2443.33 2402.55,2443.52 1266.67,1307.64 "/>
     <polygon id="_307116904" class="fil1" points="1266.67,1307.64 2402.55,2443.52 2402.44,2443.92 1266.56,1308.04 "/>
     <polygon id="_307116784" class="fil1" points="1266.56,1308.04 2402.44,2443.92 2402.32,2444.32 1266.44,1308.43 "/>
     <polygon id="_307117048" class="fil1" points="1266.44,1308.43 2402.32,2444.32 2402.31,2444.38 1266.42,1308.5 "/>
     <polygon id="_307116976" class="fil1" points="1266.42,1308.5 2402.31,2444.38 2402.21,2444.71 1266.33,1308.83 "/>
     <polygon id="_307117000" class="fil1" points="1266.33,1308.83 2402.21,2444.71 2402.09,2445.11 1266.21,1309.22 "/>
     <polygon id="_307116400" class="fil1" points="1266.21,1309.22 2402.09,2445.11 2402,2445.42 1266.12,1309.54 "/>
     <polygon id="_307117528" class="fil1" points="1266.12,1309.54 2402,2445.42 2401.98,2445.5 1266.1,1309.62 "/>
     <polygon id="_307117168" class="fil1" points="1266.1,1309.62 2401.98,2445.5 2401.86,2445.9 1265.98,1310.01 "/>
     <polygon id="_307117696" class="fil1" points="1265.98,1310.01 2401.86,2445.9 2401.74,2446.29 1265.86,1310.41 "/>
     <polygon id="_307117840" class="fil1" points="1265.86,1310.41 2401.74,2446.29 2401.69,2446.47 1265.81,1310.58 "/>
     <polygon id="_307117672" class="fil1" points="1265.81,1310.58 2401.69,2446.47 2401.63,2446.68 1265.75,1310.8 "/>
     <polygon id="_307117552" class="fil1" points="1265.75,1310.8 2401.63,2446.68 2401.51,2447.07 1265.63,1311.19 "/>
     <polygon id="_307117600" class="fil1" points="1265.63,1311.19 2401.51,2447.07 2401.39,2447.47 1265.51,1311.58 "/>
     <polygon id="_307117264" class="fil1" points="1265.51,1311.58 2401.39,2447.47 2401.38,2447.5 1265.5,1311.62 "/>
     <polygon id="_307117336" class="fil1" points="1265.5,1311.62 2401.38,2447.5 2401.28,2447.86 1265.39,1311.98 "/>
     <polygon id="_307117768" class="fil1" points="1265.39,1311.98 2401.28,2447.86 2401.16,2448.25 1265.28,1312.37 "/>
     <polygon id="_307117312" class="fil1" points="1265.28,1312.37 2401.16,2448.25 2401.07,2448.54 1265.19,1312.66 "/>
     <polygon id="_307118056" class="fil1" points="1265.19,1312.66 2401.07,2448.54 2401.04,2448.64 1265.16,1312.76 "/>
     <polygon id="_307118176" class="fil1" points="1265.16,1312.76 2401.04,2448.64 2400.92,2449.03 1265.04,1313.15 "/>
     <polygon id="_307118152" class="fil1" points="1265.04,1313.15 2400.92,2449.03 2400.68,2449.81 1264.8,1313.93 "/>
     <polygon id="_307117912" class="fil1" points="1264.8,1313.93 2400.68,2449.81 2400.56,2450.2 1264.68,1314.32 "/>
     <polygon id="_307086256" class="fil1" points="1264.68,1314.32 2400.56,2450.2 2400.44,2450.6 1264.56,1314.71 "/>
     <polygon id="_307086040" class="fil1" points="1264.56,1314.71 2400.44,2450.6 2400.33,2450.97 1264.44,1315.09 "/>
     <polygon id="_307085680" class="fil1" points="1264.44,1315.09 2400.33,2450.97 2400.2,2451.36 1264.32,1315.48 "/>
     <polygon id="_307086232" class="fil1" points="1264.32,1315.48 2400.2,2451.36 2400.13,2451.62 1264.24,1315.74 "/>
     <polygon id="_307086376" class="fil1" points="1264.24,1315.74 2400.13,2451.62 2400.09,2451.75 1264.2,1315.87 "/>
     <polygon id="_307086184" class="fil1" points="1264.2,1315.87 2400.09,2451.75 2399.97,2452.14 1264.08,1316.25 "/>
     <polygon id="_307086160" class="fil1" points="1264.08,1316.25 2399.97,2452.14 2399.72,2452.91 1263.84,1317.02 "/>
     <polygon id="_307085824" class="fil1" points="1263.84,1317.02 2399.72,2452.91 2399.6,2453.29 1263.72,1317.41 "/>
     <polygon id="_307085896" class="fil1" points="1263.72,1317.41 2399.6,2453.29 2399.49,2453.66 1263.61,1317.78 "/>
     <polygon id="_307086016" class="fil1" points="1263.61,1317.78 2399.49,2453.66 2399.48,2453.68 1263.6,1317.79 "/>
     <polygon id="_307086976" class="fil1" points="1263.6,1317.79 2399.48,2453.68 2399.36,2454.06 1263.48,1318.18 "/>
     <polygon id="_307086928" class="fil1" points="1263.48,1318.18 2399.36,2454.06 2399.24,2454.44 1263.36,1318.56 "/>
     <polygon id="_307086808" class="fil1" points="1263.36,1318.56 2399.24,2454.44 2399.17,2454.68 1263.29,1318.79 "/>
     <polygon id="_307087096" class="fil1" points="1263.29,1318.79 2399.17,2454.68 2399.12,2454.83 1263.24,1318.94 "/>
     <polygon id="_307087024" class="fil1" points="1263.24,1318.94 2399.12,2454.83 2399,2455.21 1263.12,1319.33 "/>
     <polygon id="_307087048" class="fil1" points="1263.12,1319.33 2399,2455.21 2398.87,2455.59 1262.99,1319.71 "/>
     <polygon id="_307087144" class="fil1" points="1262.99,1319.71 2398.87,2455.59 2398.84,2455.69 1262.96,1319.8 "/>
     <polygon id="_307086880" class="fil1" points="1262.96,1319.8 2398.84,2455.69 2398.75,2455.97 1262.87,1320.09 "/>
     <polygon id="_307086472" class="fil1" points="1262.87,1320.09 2398.75,2455.97 2398.26,2457.49 1262.38,1321.61 "/>
     <polygon id="_307087768" class="fil1" points="1262.38,1321.61 2398.26,2457.49 2398.2,2457.7 1262.32,1321.82 "/>
     <polygon id="_307087888" class="fil1" points="1262.32,1321.82 2398.2,2457.7 2398.14,2457.87 1262.26,1321.99 "/>
     <polygon id="_307087720" class="fil1" points="1262.26,1321.99 2398.14,2457.87 2398.02,2458.25 1262.14,1322.37 "/>
     <polygon id="_307087600" class="fil1" points="1262.14,1322.37 2398.02,2458.25 2397.89,2458.63 1262.01,1322.75 "/>
     <polygon id="_307087648" class="fil1" points="1262.01,1322.75 2397.89,2458.63 2397.87,2458.7 1261.99,1322.82 "/>
     <polygon id="_307087312" class="fil1" points="1261.99,1322.82 2397.87,2458.7 2397.77,2459.01 1261.89,1323.12 "/>
     <polygon id="_307087384" class="fil1" points="1261.89,1323.12 2397.77,2459.01 2397.52,2459.76 1261.64,1323.88 "/>
     <polygon id="_307087240" class="fil1" points="1261.64,1323.88 2397.52,2459.76 2397.4,2460.14 1261.52,1324.25 "/>
     <polygon id="_307087264" class="fil1" points="1261.52,1324.25 2397.4,2460.14 2397.27,2460.51 1261.39,1324.63 "/>
     <polygon id="_307087672" class="fil1" points="1261.39,1324.63 2397.27,2460.51 2397.22,2460.69 1261.34,1324.81 "/>
     <polygon id="_307088632" class="fil1" points="1261.34,1324.81 2397.22,2460.69 2397.15,2460.89 1261.27,1325.01 "/>
     <polygon id="_307088560" class="fil1" points="1261.27,1325.01 2397.15,2460.89 2396.33,2463.34 2395.51,2465.78 2394.68,2468.2 2393.86,2470.59 2393.03,2472.97 2392.2,2475.32 2391.38,2477.65 2390.56,2479.97 2389.74,2482.26 2388.93,2484.54 2388.12,2486.79 2387.32,2489.03 2386.53,2491.24 2385.75,2493.44 2384.98,2495.61 2384.22,2497.77 1248.34,1361.88 1249.1,1359.73 1249.87,1357.55 1250.65,1355.36 1251.44,1353.14 1252.24,1350.91 1253.04,1348.65 1253.86,1346.38 1254.68,1344.09 1255.5,1341.77 1256.32,1339.44 1257.15,1337.08 1257.98,1334.71 1258.8,1332.31 1259.63,1329.9 1260.45,1327.46 "/>
     <polygon id="_307088440" class="fil1" points="1337.76,1289.97 2473.64,2425.85 2472.21,2431.36 2470.68,2436.8 2469.05,2442.15 2467.32,2447.42 2465.48,2452.61 2463.54,2457.72 2461.5,2462.74 2459.35,2467.68 2457.1,2472.53 2454.73,2477.3 2452.26,2481.98 2449.67,2486.57 2446.98,2491.07 2444.17,2495.49 2441.25,2499.81 2438.22,2504.04 2435.07,2508.18 2431.81,2512.23 2428.43,2516.18 2424.93,2520.04 2421.31,2523.8 2417.57,2527.47 2413.71,2531.04 2409.73,2534.51 2405.62,2537.88 2401.39,2541.16 2397.04,2544.33 2392.56,2547.4 2387.95,2550.37 2383.21,2553.24 2378.35,2556.01 2373.35,2558.67 1237.47,1422.78 1242.46,1420.12 1247.33,1417.36 1252.07,1414.49 1256.68,1411.52 1261.16,1408.45 1265.51,1405.27 1269.74,1402 1273.85,1398.63 1277.83,1395.15 1281.69,1391.59 1285.43,1387.92 1289.05,1384.16 1292.55,1380.3 1295.93,1376.34 1299.19,1372.3 1302.34,1368.16 1305.37,1363.93 1308.29,1359.6 1311.1,1355.19 1313.79,1350.69 1316.38,1346.1 1318.85,1341.42 1321.21,1336.65 1323.47,1331.8 1325.62,1326.86 1327.66,1321.84 1329.6,1316.73 1331.44,1311.54 1333.17,1306.27 1334.8,1300.92 1336.33,1295.48 "/>
    </g>
    <path id="_300479960" class="fil1" d="M730.601 1105.14l0 0zm137.306 -531.88l0 0zm252.803 317.019l0 0zm42.9662 37.3252l0 0zm117.202 293.512l0 0zm-16.3146 93.5918l0 0zm41.0079 -276.995c11.9835,-2.3374 23.5984,5.4815 25.9358,17.465 17.5595,90.006 22.2839,170.276 6.2504,234.792 -14.7213,59.2394 -46.2957,105 -100.29,132.817 0.753544,3.86221 1.9748,7.56969 3.75355,11.1248 15.7512,31.5024 -15.7583,59.0705 -74.8264,77.8973 -59.0788,18.8268 -66.9544,52.0619 -102.395,63.88 -35.4496,11.8181 -66.4926,-15.7559 -66.4938,-15.7547 0,0 -20.1496,19.6878 -57.5079,23.6256 -37.3583,3.93898 -64.1788,-19.689 -64.18,-19.6878 -26.7012,27.5681 -67.7989,23.6339 -99.3048,3.94252 -31.5071,-19.6937 19.7681,-47.2642 19.7669,-47.263 0,0 -0.532678,-15.2433 -2.33858,-41.1508l-0.0177165 -0.250394 -0.0177165 -0.251575 -0.0177165 -0.251575 -0.0177165 -0.252756 -0.0165354 -0.233858 -0.0011811 -0.0200788 -0.0177165 -0.252756 -0.0177165 -0.255118 -0.0177165 -0.255118 -0.0188977 -0.255118 -0.0177165 -0.257481 -0.0188977 -0.256299 -0.0177165 -0.257481 -0.00236221 -0.0248032 -0.0165354 -0.233858 -0.0188977 -0.258662 -0.0177165 -0.259843 -0.0188977 -0.259843 -0.0188977 -0.261024 -0.0188977 -0.261024 -0.0188977 -0.262205 -0.00590552 -0.0720473 -0.0129921 -0.191339 -0.0188977 -0.263386 -0.0389764 -0.527953 -0.0188977 -0.265748 -0.0389764 -0.532678 -0.00944883 -0.120473 -0.0295276 -0.414567 -0.0200788 -0.26811 -0.284646 -3.82441 -0.0212599 -0.27874 -0.106299 -1.39843 -0.0212599 -0.282284 -0.113386 -1.46457 -0.0177165 -0.239764c-9.3189,-120.402 -27.3225,-244.269 -62.2489,-359.25l-0.957875 -3.1689 -0.0212599 -0.068504 -0.0212599 -0.068504 -0.0200788 -0.068504 -0.0212599 -0.068504 -0.0212599 -0.0696851 -0.0212599 -0.068504 -0.0200788 -0.068504 -0.0212599 -0.068504 -0.0212599 -0.0696851 -0.0212599 -0.068504 -0.0212599 -0.068504 -0.0212599 -0.068504 -0.0200788 -0.068504 -0.0212599 -0.068504 -0.0212599 -0.0696851 -0.0212599 -0.068504 -0.0212599 -0.068504c-3.48071,-11.2169 -6.59646,-22.6004 -9.32009,-34.0252l-0.398032 -1.68307c-10.1055,-42.9933 -12.9236,-80.2772 -11.5476,-111.97 -1.73032,2.9315 -2.63622,4.97008 -2.63622,4.97126 -23.2158,-67.1304 43.0429,-141.347 43.0429,-141.347l1.40079 1.54725c0.804331,-1.02756 1.25551,-1.5437 1.25551,-1.5437 -51.893,-25.3134 -40.5768,-92.4603 -25.8874,-137.436 10.4622,-32.1 23.7614,-56.6764 23.7614,-56.6764 -23.6351,-66.9497 0,-141.658 0,-141.658 8.68111,-17.9835 18.8681,-25.1445 32.9776,-4.05355 36.9296,27.5658 65.4709,98.4036 65.4709,98.4036 6.36969,-1.12913 13.1717,-1.7752 20.0906,-2.05158l0.140551 -0.00590552 0.285827 -0.011811 0.419292 -0.0141732 0.124016 -0.00472441 0.0165354 0 0.140551 -0.00472441 0.141732 -0.00472441 0.140551 -0.00472441c5.35512,-0.164173 58.5603,1.95827 58.5603,4.39961 9.45237,1.51181 15.4429,2.82047 15.4417,2.82166 14.0457,-63.1973 69.9083,-72.0166 81.6083,-107.941 14.074,-0.830316 22.5839,7.44804 24.724,26.1461 21.4134,49.4162 -13.2744,120.125 -13.2744,120.125 16.9701,28.6559 27.0496,52.9819 32.589,73.4162 0.788977,2.91733 1.50827,5.84764 2.16732,8.79686 5.27717,23.9421 6.60945,62.2867 -12.1913,81.0875 -2.83465,2.22047 -6.47717,14.9917 -3.25512,10.9961 21.5634,25.3122 33.3036,49.9052 39.4607,71.204 4.55788,4.93347 9.58465,10.1315 15.1642,15.6248l0.283465 0.27874 1.11024 1.0878 2.97047 2.88071 0.298819 0.288189 1.20236 1.15394 0.303544 0.28937 0.304725 0.28937 2.46732 2.33977 0.312992 0.295276 1.57795 1.4811 0.318898 0.297638 2.58307 2.39882 0.327166 0.302362 0.328347 0.303544 1.32284 1.21536 0.333071 0.304725c6.28819,5.75906 13.1008,11.785 20.4898,18.098l0.193701 0.164173 1.14449 0.976772 0.140551 0.119291 0.194882 0.166536 0.337796 0.285827 0.113386 0.0968505 0.22441 0.190158 0.338977 0.287008 0.0862205 0.0744095 0.253937 0.21378 0.340158 0.288189 0.0590552 0.0507874 0.282284 0.237402 0.341339 0.288189 0.0318898 0.0283465 0.31063 0.261024c4.11851,3.47126 8.40709,7.02756 12.8599,10.6677l2.7189 2.21221c93.0887,75.4843 115.448,181.499 115.355,263.632 0.294095,-0.0590552 -0.587008,22.6382 -0.699213,24.7524l-0.022441 0.418111 -0.0236221 0.418111 -0.0484252 0.833859 -0.0248032 0.415748 -0.0259843 0.415748 -0.0271654 0.414567c-0.857481,13.9429 -2.34685,27.7878 -4.4563,41.5961 -0.630709,4.0878 -1.31811,8.16733 -2.06929,12.235 -1.31929,7.14567 -2.7,13.5638 -4.04174,19.1008l-0.0106299 0.0437008 -0.0129921 0.0555119 -0.0248032 0.0992127 -0.644882 2.60079 -0.0236221 0.0944883 -0.0236221 0.0933072 -0.0236221 0.0933072 -0.00472441 0.0200788 -0.0200788 0.0732284 -0.0236221 0.0933072 -0.0236221 0.0921261 -0.0236221 0.0933072 -0.0236221 0.0921261 -0.585827 2.24764 -0.022441 0.0874016 -0.0236221 0.0874016 -0.108662 0.4063 -0.108662 0.405118 -0.0708662 0.261024 -0.0389764 0.144095 -0.109843 0.403937 -0.109843 0.405118 -0.0318898 0.115748 -0.0779528 0.287008 -0.111024 0.402756 -0.103937 0.376772 -0.00708662 0.0259843 -0.111024 0.402756 -0.112205 0.401575 -0.0649607 0.231496 -0.0472441 0.168898 -0.112205 0.400394 -0.113386 0.400394 -0.0248032 0.0885827 -0.0874016 0.31063 -0.113386 0.399213 -0.00708662 0.0236221 -0.220866 0.773623 -0.114567 0.396851 -0.0578741 0.20315 -0.056693 0.193701 -0.114567 0.396851 -0.115748 0.39567 -0.0177165 0.0625985 -0.0968505 0.333071 -0.115748 0.39567 -0.0933072 0.316536 -0.0236221 0.0779528 -0.115748 0.394488 -0.116929 0.393307 -0.0519685 0.175984 -0.0649607 0.217323 -0.116929 0.392126 -0.116929 0.392126 -0.0106299 0.0366142 -0.10748 0.355512 -0.11811 0.390945 -0.0862205 0.288189 -0.0318898 0.102756 -0.11811 0.389764 -0.237402 0.779528 -0.119291 0.388583 -0.121654 0.398032 -0.116929 0.377953 -0.120473 0.387402 -0.0791339 0.259843 -0.0401575 0.126378 -0.120473 0.387402 -0.240945 0.77126 -0.120473 0.383859 -0.115748 0.369685 -0.00590552 0.0153543 -0.121654 0.383859 -0.120473 0.382677 -0.0732284 0.232677 -0.0484252 0.151181 -0.121654 0.382677 -0.122835 0.381496 -0.0295276 0.0956694 -0.0921261 0.285827 -0.490158 1.52126 -0.0649607 0.204331 -0.0578741 0.174803 -0.122835 0.377953 -0.124016 0.379134 -0.0212599 0.068504 -0.101575 0.308268 -0.246851 0.754725 -0.124016 0.375591 -0.124016 0.375591 -0.0578741 0.177165 -0.0661418 0.198425c-4.35237,13.1575 -8.92087,25.4327 -12.9307,36.8788 23.2512,-21.1453 38.237,-49.0666 46.5378,-82.4658 11.7957,-47.4638 10.7008,-106.058 0.77126,-172.278 -2.12362,-14.1614 -4.65,-28.6689 -7.54134,-43.4929 -2.33858,-11.9835 5.48032,-23.5984 17.465,-25.937z"/>
   </g>
  </g>
  <path class="fil2" d="M1024 -0.0011811c565.539,0 1024,458.462 1024,1024 0,565.539 -458.462,1024 -1024,1024 -565.539,0 -1024,-458.462 -1024,-1024 0,-565.539 458.462,-1024 1024,-1024z"/>
  <path class="fil2" d="M1203.57 1413.53c125.036,-45.5622 140.21,-179.968 106.236,-354.12"/>
  <path class="fil3" d="M1196.05 1392.78c-11.4591,4.15394 -17.3811,16.813 -13.2272,28.2721 4.15394,11.4579 16.813,17.3811 28.2709,13.2272 70.3182,-25.6217 109.691,-76.0099 126.665,-144.314 16.0335,-64.5154 11.3091,-144.786 -6.2504,-234.792 -2.3374,-11.9835 -13.9524,-19.8024 -25.9358,-17.465 -11.9847,2.33858 -19.8036,13.9536 -17.465,25.937 16.415,84.1453 21.0886,158.157 6.77008,215.771 -13.376,53.8252 -44.1107,93.4264 -98.8276,113.363z"/>
  <path class="fil4" d="M847.394 575.325c0,0 -28.5414,-70.8378 -65.4709,-98.4036 -14.1095,-21.091 -24.2965,-13.9299 -32.9776,4.05355 0,0 -23.6351,74.7083 0,141.658 0,0 -82.6973,152.746 2.12599,194.112 0,-0.00354331 -80.8938,92.5737 -21.8185,283.982 59.0705,191.404 67.0288,419.822 67.0288,419.822 0.0011811,-0.0011811 -51.2741,27.5693 -19.7669,47.263 31.5059,19.6914 72.6036,23.6256 99.3048,-3.94252 0.0011811,-0.0011811 26.8217,23.6268 64.18,19.6878 37.3583,-3.9378 57.5079,-23.6256 57.5079,-23.6256 0.0011811,-0.0011811 31.0441,27.5729 66.4938,15.7547 35.4402,-11.8181 43.3158,-45.0532 102.395,-63.88 59.0682,-18.8268 90.5776,-46.3949 74.8264,-77.8973 -15.7583,-31.5071 11.8134,-74.8264 27.574,-133.897 15.7465,-59.0705 43.3016,-252.052 -102.4,-370.199 -145.719,-118.147 -107.877,-147.738 -107.877,-147.738 0.00236221,-0.00236221 47.7059,-44.6516 -22.565,-163.301 0,0 34.6878,-70.7091 13.2744,-120.125 -2.14016,-18.698 -10.65,-26.9764 -24.724,-26.1461 -11.7,35.9244 -67.5627,44.7437 -81.6083,107.941 0.0011811,-0.0011811 -55.852,-12.2091 -95.5016,-5.1189z"/>
  <path class="fil5" d="M901.606 608.685c-0.155906,-11.4236 -0.485433,-22.9512 -1.28268,-34.4374 -6.02835,-0.523229 -12.3638,-0.912993 -18.7677,-1.06536 0.477166,11.8358 1.34646,23.6729 1.90984,35.5028 1.11142,23.5418 0.755906,48.4288 7.48819,71.1284 0.951969,3.18425 5.54646,3.21851 6.4689,0 6.62126,-22.9831 4.50945,-47.4319 4.18347,-71.1284z"/>
  <path class="fil5" d="M865.797 573.348c-2.24646,17.5276 0.596457,34.9418 0.519685,52.5638 -0.00472441,1.57205 2.23229,1.82599 2.68819,0.364961 5.34449,-17.2559 8.19449,-35.2111 5.83347,-53.1615 -3.02481,0.0129921 -6.04607,0.0874016 -9.04135,0.232677z"/>
  <path class="fil5" d="M909.278 575.142c0.0425197,0.833859 0.0814961,1.6689 0.114567,2.50276 0.608268,15.561 1.17638,31.4469 6.01772,46.3477 0.849213,2.60197 4.42678,2.60197 5.27481,0 4.2626,-13.1516 6.71103,-29.876 6.7689,-46.3725 -5.1626,-0.825591 -11.361,-1.71142 -18.176,-2.47795z"/>
  <path class="fil5" d="M761.461 703.895c-12.1571,-8.09292 -23.5784,-17.3728 -36.2764,-24.5858 -1.63465,5.01378 -3.19488,10.2106 -4.62992,15.5268 11.6587,7.33583 24.1937,13.0819 37.1752,17.9138 5.4,2.0126 8.07402,-5.96693 3.73111,-8.85473z"/>
  <path class="fil5" d="M747.334 726.593c-9.79489,-4.26615 -20.9398,-8.16379 -31.9311,-8.49568 -0.967324,5.70945 -1.69843,11.4437 -2.13189,17.1354 10.7599,0.32126 21.9083,-2.35394 32.5028,-2.84646 2.78977,-0.131102 4.59685,-4.45866 1.56024,-5.79331z"/>
  <path class="fil5" d="M752.464 745.928c-13.7386,2.31851 -26.0918,7.75631 -39.0697,12.5941 0.787796,7.99253 2.44252,15.6697 5.15788,22.8142 14.8595,-6.78426 28.5024,-16.3099 38.504,-27.5126 3.30118,-3.69922 0.0271654,-8.66812 -4.59213,-7.89568z"/>
  <path class="fil5" d="M1066.09 683.838c-15.1323,7.16693 -29.7248,16.8614 -42.0839,26.8323 -6.15355,4.9689 0.512599,14.524 7.3689,12.6662 13.8685,-3.75473 27.4878,-11.3622 39.7642,-20.3693 -1.24843,-5.99174 -2.90906,-12.365 -5.04922,-19.1291z"/>
  <path class="fil5" d="M1074.16 725.488c-9.77245,2.4874 -19.5272,5.05748 -29.5607,6.69567 -2.34921,0.386221 -2.39646,4.44922 0,4.79646 9.73229,1.3937 19.7587,2.03622 29.5736,1.11614 0.210236,-3.91536 0.226772,-8.11182 -0.0129921,-12.6083z"/>
  <path class="fil5" d="M1070.9 758.437c-9.22796,-2.17677 -18.2032,-7.13859 -26.0918,-11.7095 -4.44095,-2.56654 -8.4378,3.19488 -5.27008,6.83268 7.00394,8.0315 15.7358,15.1347 25.2921,19.7587 2.07284,-3.69803 4.29331,-8.6256 6.06969,-14.8819z"/>
  <path class="fil5" d="M795.396 1275.27c0.296457,-2.3563 -3.02362,-2.31378 -3.78071,-0.516142 -0.602363,1.44685 -5.09528,2.89725 -6.60709,3.42166 -3.18189,1.11142 -6.30827,0.922442 -9.60591,0.585827 -1.81772,-0.184252 -3.57992,-0.578741 -5.30788,-1.06536 0.876379,5.17796 1.72677,10.3228 2.54646,15.4311 3.07796,-0.0177165 6.06142,-0.282284 8.72835,-0.694489 4.53307,-0.692127 8.78505,-2.92323 11.9386,-6.20079 3.41103,-3.54803 1.55788,-6.70985 2.08819,-10.9618z"/>
  <path class="fil5" d="M806.727 1322.46c-9.84331,0.574016 -19.8331,0.477166 -29.6622,-0.351969 0.725197,5.00197 1.42795,9.95434 2.10118,14.8524 10.3099,-0.552756 20.1662,-3.24449 29.1603,-8.59961 2.60079,-1.54488 1.64173,-6.09095 -1.59921,-5.90079z"/>
  <path class="fil5" d="M810.755 1363.43c-8.91733,1.24016 -17.1484,3.14055 -26.2264,2.5004 -0.536221,-0.0389764 -1.07008,-0.090945 -1.60276,-0.157087 0.662599,5.36103 1.29567,10.6358 1.89567,15.8138 10.6996,-0.165354 21.5173,-3.55276 29.6173,-9.41457 4.57559,-3.30709 1.69725,-9.49489 -3.68386,-8.74253z"/>
  <path class="fil5" d="M830.578 1416.58c-12.7725,-1.39725 -25.6169,1.0748 -38.4095,1.60984 -1.14331,0.0472441 -2.27835,0.0673229 -3.40394,0.0637796 0.590552,5.94922 1.1315,11.6858 1.63701,17.2288 15.8492,-1.92047 31.7634,-6.85512 41.3717,-10.1221 4.97481,-1.69252 3.76181,-8.23938 -1.19528,-8.78032z"/>
  <path class="fil5" d="M827.926 1457.76c-10.8579,0.529134 -21.4264,3.53268 -32.3303,4.19764 -0.980316,0.0602363 -1.95945,0.0980316 -2.93622,0.115748 0.487796,6.20906 0.910631,11.9823 1.28386,17.3232 14.0539,-1.68425 27.4878,-7.07127 36.1465,-16.4398 1.69606,-1.84961 0.62126,-5.33504 -2.16378,-5.19685z"/>
  <path class="fil5" d="M974.383 1479.42c1.97362,-5.74607 3.96614,-11.4992 5.94922,-17.2819 -1.43858,0.487796 -2.87717,0.977954 -4.33465,1.36536 -7.63111,2.0374 -15.6083,3.06142 -23.498,3.12166 -5.61851,0.0413386 -6.21497,7.61221 -1.27087,9.39213 6.45473,2.32795 14.8228,3.60709 23.1543,3.40276z"/>
  <path class="fil5" d="M987.581 1424.2c1.64173,0.364961 3.64252,0.664961 5.78622,0.885827 1.72441,-4.73977 3.50433,-9.45709 5.31615,-14.1508 -2.32323,0.539764 -4.63347,1.06536 -6.85158,1.18937 -6.78544,0.368504 -16.415,0.226772 -22.3914,-3.4441 -2.14725,-1.32402 -3.82205,1.49882 -2.48386,3.21851 5.64095,7.26142 11.628,10.3476 20.6244,12.3012z"/>
  <path class="fil5" d="M996.5 1366.57c6.29174,0.968505 13.3453,2.85473 20.0362,3.18307 1.25197,-2.52402 2.41181,-5.10591 3.70748,-7.58623 1.12087,-2.17087 2.40709,-4.09843 3.79961,-5.83701l-0.78189 -0.304725c-8.46024,-1.3878 -18.3165,1.58268 -26.765,2.87835 -3.8067,0.584646 -3.80788,7.07717 0.00354331,7.66654z"/>
  <path class="fil5" d="M1035.37 1319.89c-8.78623,-4.30512 -20.7083,0.983859 -29.8607,2.13662 -4.62756,0.589371 -4.62874,6.62599 0,7.21064 9.15237,1.15394 21.0721,6.44646 29.8595,2.13543 4.34528,-2.12599 4.34528,-9.35552 0.0011811,-11.4827z"/>
  <path class="fil5" d="M785.968 1118.15c-24.1925,-15.1063 -43.8107,-36.1512 -66.4123,-53.0611 2.69764,11.4768 5.90434,23.3516 9.69804,35.641 0.452363,1.46457 0.890552,2.93622 1.33701,4.40552 17.7579,7.39961 37.2402,11.6988 54.6933,14.6055 0.955513,0.151181 1.55433,-1.04173 0.683859,-1.59095z"/>
  <path class="fil5" d="M1270.31 1294.05c-3.73819,2.08937 -7.49528,4.1504 -11.328,6.07323 -14.3232,7.18347 -29.9847,11.4402 -45.4725,15.1795 -4.86969,1.1752 -5.13189,9.06969 0,10.0606 14.628,2.83819 31.5319,2.84292 47.7591,-0.35315 2.64685,-8.00079 5.21339,-16.3264 7.52599,-24.9933 0.494882,-1.85788 1.00158,-3.8504 1.51536,-5.96693z"/>
  <path class="fil5" d="M1278.61 1246.56c-32.6634,5.3315 -65.5453,11.4201 -97.33,19.1693 -3.32599,0.811418 -3.33425,5.90315 0,6.70867 29.641,7.18583 61.9949,10.7173 92.4934,5.57717 1.77756,-9.22914 3.47008,-19.7988 4.83662,-31.4551z"/>
  <path class="fil5" d="M1281.76 1193.44c-22.0666,4.71969 -44.2796,5.59252 -67.7386,4.20591 -9.33662,-0.543308 -9.95434,12.5374 -2.08347,15.3768 22.4504,8.10591 45.9532,11.0386 68.9469,8.08701 0.544489,-8.84292 0.864568,-18.091 0.875198,-27.6697z"/>
  <path class="fil5" d="M1107.37 877.404c-8.32442,9.62363 -16.9524,19.0134 -27.6638,27.1099 -21.0354,15.8965 -43.3158,27.0839 -68.0528,36.0981 -3.84331,1.40197 -2.95158,6.35906 0.922442,6.83386 28.1445,3.46654 54.9898,-9.3319 78.6485,-23.2193 11.4201,-6.70158 24.704,-16.5886 35.7142,-28.2012 -7.17875,-6.54804 -13.6902,-12.7547 -19.5685,-18.6213z"/>
  <path class="fil5" d="M1141.52 908.985c-3.8374,4.83189 -7.88386,9.52442 -12.476,13.8709 -12.3331,11.6799 -27.7996,20.5595 -43.1126,27.7358 -7.8378,3.66851 -4.01103,16.6937 4.39489,16.2071 25.6276,-1.48819 54.078,-17.6362 73.3548,-39.202 -7.92284,-6.46536 -15.3142,-12.6744 -22.161,-18.6118z"/>
  <path class="fil6" d="M998.577 713.043c0,0 -13.3252,23.804 -29.7437,23.804 -16.4339,-0.0011811 -29.7508,-23.8028 -29.7508,-23.8028 0.00236221,-0.0011811 13.3158,-23.8016 29.7508,-23.8016 16.4209,-0.00236221 29.7437,23.8016 29.7437,23.8004z"/>
  <path class="fil6" d="M998.577 713.043l-2.01024 -1.12795 -0.132284 0.232677c-0.705119,1.21417 -4.19292,6.97796 -9.27284,12.3225 -2.54055,2.67402 -5.47796,5.23347 -8.60079,7.08308 -3.12874,1.85669 -6.41339,2.99173 -9.72757,2.98819 -3.53977,0.00354331 -7.04174,-1.28622 -10.3571,-3.36614 -4.96536,-3.10394 -9.37796,-7.94528 -12.4866,-12.0024 -1.55197,-2.03032 -2.78858,-3.85985 -3.62835,-5.17323 -0.419292,-0.661418 -0.741733,-1.19055 -0.955513,-1.55079l-0.31063 -0.533859 -2.01024 1.12795 2.01024 1.12559 0.132284 -0.236221c0.7063,-1.21063 4.18583,-6.97441 9.27166,-12.3142 2.53701,-2.66929 5.47441,-5.23347 8.59961,-7.0819 3.1311,-1.85315 6.41339,-2.98819 9.73465,-2.98819 3.5374,-0.0011811 7.03583,1.29213 10.3512,3.36614 4.96181,3.10158 9.37796,7.9441 12.4807,12.0024 1.55669,2.02914 2.79095,3.85985 3.63425,5.17323 0.419292,0.655512 0.741733,1.18583 0.954331,1.54488l0.312992 0.533859 2.01024 -1.12559 -2.01024 -1.12795 2.01024 1.12795 2.0126 -1.12795c-0.0519685,-0.0885827 -3.44646,-6.15591 -9.01536,-12.3201 -2.79331,-3.0815 -6.13229,-6.19252 -9.94135,-8.58662 -3.80551,-2.38465 -8.12481,-4.06536 -12.7996,-4.07126 -4.67599,0.00236221 -9.00237,1.6878 -12.8055,4.07126 -11.3693,7.18938 -18.8445,20.7768 -18.9603,20.9067l-0.625985 1.12795 0.628347 1.12559c0.0531496,0.0885827 3.44173,6.15709 9.01654,12.3213 2.79213,3.08386 6.12874,6.19725 9.94135,8.59135 3.8067,2.3811 8.12953,4.06536 12.8055,4.07126 4.67599,-0.00708662 8.9941,-1.68898 12.7996,-4.07126 11.3705,-7.1941 18.8445,-20.778 18.9555,-20.9114l0.63189 -1.12677 -0.630709 -1.12795 -2.0126 1.12795z"/>
  <path class="fil7" d="M982.374 713.951c0,12.9626 -5.6941,23.4721 -12.7169,23.4721 -7.03111,-0.00354331 -12.7158,-10.5095 -12.7158,-23.4709 0,-12.9673 5.68347,-23.4732 12.7158,-23.4732 7.02402,-0.0011811 12.7169,10.5071 12.7169,23.4721z"/>
  <path class="fil6" d="M844.771 710.356c0,0 -15.3638,22.5378 -31.7244,21.0957 -16.3677,-1.44331 -27.5492,-26.3185 -27.5492,-26.3185 0,0 15.3591,-22.539 31.7268,-21.0957 16.3606,1.4374 27.5457,26.3197 27.5469,26.3185z"/>
  <path class="fil6" d="M844.771 710.356l-1.90984 -1.30276 -0.141732 0.207874c-0.757087,1.07835 -4.49646,6.19961 -9.75355,10.9583 -5.25,4.79055 -12.0059,9.04253 -18.4016,8.99528 -0.438189,0 -0.876379,-0.0177165 -1.31457,-0.0590552 -3.52677,-0.309449 -6.90237,-1.90512 -10.024,-4.26615 -4.67126,-3.52914 -8.64568,-8.7319 -11.3847,-13.0476 -1.36772,-2.16024 -2.43898,-4.09134 -3.15827,-5.47441 -0.36378,-0.693308 -0.635434,-1.2437 -0.820867,-1.62284l-0.262205 -0.559843 -2.10236 0.948426 1.90394 1.29331 0.144095 -0.201969c0.760631,-1.07835 4.49528,-6.20079 9.75001,-10.9547 5.25355,-4.79174 12.0083,-9.04253 18.4075,-8.99646 0.442914,-0.00236221 0.881103,0.0188977 1.31929,0.0602363 3.52323,0.303544 6.89764,1.89921 10.0134,4.26142 4.67717,3.52441 8.65158,8.7319 11.3847,13.0476 1.3748,2.15669 2.44488,4.09016 3.16418,5.47441 0.360236,0.689764 0.635434,1.2437 0.816142,1.62165l0.26811 0.562205 2.10236 -0.944883 -1.90984 -1.30276 1.90984 1.30276 2.10236 -0.947245c-0.046063,-0.0944883 -2.89134,-6.43465 -7.90394,-13.0642 -2.50748,-3.31654 -5.56063,-6.70985 -9.14764,-9.4252 -3.58347,-2.71299 -7.73623,-4.76811 -12.3933,-5.18268 -0.576378,-0.0507874 -1.15276,-0.0744095 -1.72559,-0.0744095 -8.95867,0.0602363 -16.8295,5.77796 -22.6063,11.2146 -5.77323,5.47559 -9.4441,10.8721 -9.50316,10.9547l-0.728741 1.06417 0.530315 1.1811c0.0448819,0.0921261 2.89016,6.43229 7.89804,13.063 2.51339,3.31536 5.56536,6.70985 9.15237,9.42875 3.58347,2.70709 7.74213,4.76457 12.3992,5.17914 0.577559,0.0496063 1.14685,0.0779528 1.71969,0.0779528 8.95985,-0.0602363 16.8295,-5.7815 22.6063,-11.2181 5.76969,-5.48032 9.4441,-10.8732 9.50316,-10.9559l0.726379 -1.06536 -0.526772 -1.17756 -2.10236 0.947245z"/>
  <path class="fil7" d="M828.54 709.838c-1.13976,12.9106 -7.74213,22.8803 -14.7272,22.2638 -6.99922,-0.618898 -11.7437,-11.5831 -10.611,-24.4984 1.13504,-12.9165 7.73268,-22.8792 14.7284,-22.2626 6.99922,0.617717 11.7484,11.5795 10.6099,24.4973z"/>
  <path class="fil8" d="M975.77 588.361c0,0 35.041,-58.1811 53.5949,-61.9985 18.5516,-3.81496 -7.95001,76.2402 -7.95001,76.2402 0.00236221,-0.0011811 -21.4949,-8.5252 -45.6449,-14.2417z"/>
  <path class="fil8" d="M772.274 603.8c0,0 23.491,-13.7516 48.0225,-19.2791 0,-0.00236221 -37.4185,-67.1776 -48.0237,-64.5249 -10.6051,2.64921 -13.252,45.7902 0.0011811,83.804z"/>
  <path class="fil9" d="M915.395 748.991c-14.1343,0 -26.263,10.0016 -29.6705,23.1945 -0.565748,-1.5189 -1.21654,-3.01772 -2.06103,-4.46457 -2.56299,-4.33465 -6.01772,-7.78819 -10.3559,-10.3571l-0.797245 -0.337796c-2.32441,-0.986221 -4.65827,-1.96772 -6.98268,-2.94921 -5.18622,-1.39843 -10.3689,-1.39725 -15.5563,0 -4.96063,1.38898 -9.26812,3.89174 -12.9154,7.52127 -2.42481,2.44134 -4.30748,5.20985 -5.73189,8.23938 -3.79843,6.60709 -4.23189,15.1476 -1.32284,22.2106 1.82244,6.35788 7.65827,12.3945 12.9697,15.5114 4.57559,2.64213 9.49489,3.97559 14.7756,3.99331 5.28426,-0.0177165 10.1988,-1.35118 14.7626,-3.99331l0.798426 -0.346063c4.33937,-2.56536 7.79292,-6.01654 10.3559,-10.3559 1.30512,-2.23583 2.27244,-4.56496 2.93268,-6.97678 4.29213,11.7898 15.6721,20.4047 28.7988,20.4047 16.7067,-0.0011811 30.6496,-13.9441 30.6496,-30.6496 0.0011811,-16.7008 -13.9441,-30.6449 -30.6496,-30.6449z"/>
  <path class="fil7" d="M883.638 742.821c-18.3673,0.948426 -29.4378,2.8689 -16.1398,19.7173 13.3028,16.8473 18.0697,18.6142 36.6744,0.539764 18.626,-18.0756 -7.01812,-20.9528 -20.5347,-20.2571z"/>
  <path class="fil8" d="M748.416 816.741c0,0 -66.2587,74.217 -43.0429,141.347 0.0011811,-0.00236221 8.50276,-19.1398 23.2205,-24.5126 0.0011811,0 9.51733,58.9288 25.6465,88.4847l17.987 -22.402 22.428 59.8784 32.4839 -45.6898 18.0331 34.9111 4.19174 -13.4327 28.6016 59.0469 29.5524 -69.8008 21.4902 29.5512 15.9508 -34.9229 30.9898 10.7433 21.9059 -42.9768 27.8634 5.37166 13.4327 -37.6347 29.5465 14.3173 13.4327 -36.7607 16.1197 0c0,0 18.802,-66.6626 -42.9851,-139.189 0,-0.0011811 -81.4701,101.589 -169.077,109.538 -57.0367,5.17914 -137.771,-85.8638 -137.771,-85.8674z"/>
  <path class="fil5" d="M875.821 1563.87c0,0 2.49449,-18.2587 5.11772,-45.4347 0.571654,-6.79843 1.18937,-14.1555 1.84843,-21.939 0.612993,-7.77993 0.996851,-15.9921 1.50354,-24.4618 0.438189,-8.47087 0.622441,-17.2358 0.797245,-26.1201 0.222047,-8.88544 0.0874016,-17.9091 -0.16063,-26.915 -0.231496,-9.00591 -0.590552,-18.0059 -1.33701,-26.8311 -0.811418,-8.81221 -1.42559,-17.511 -2.66103,-25.8496 -0.507874,-4.18583 -1.18465,-8.27009 -1.82599,-12.274 -0.584646,-4.02048 -1.25315,-7.93938 -2.04685,-11.7165 -0.709843,-3.80788 -1.49055,-7.48819 -2.34803,-11.0244 -0.814961,-3.5504 -1.47874,-7.02166 -2.43898,-10.2626 -1.70079,-6.55749 -3.46654,-12.515 -5.13662,-17.791 -1.68307,-5.2689 -3.40748,-9.77835 -4.67126,-13.5874 -2.93504,-7.47048 -4.61103,-11.7402 -4.61103,-11.7402 0.0011811,0 0.646063,0.950788 1.86378,2.73071 1.19055,1.79291 3.06142,4.37599 5.2193,7.80119 1.95709,3.51733 4.62048,7.69607 7.09253,12.7772 1.24016,2.53937 2.55355,5.24764 3.94725,8.10237 1.32756,2.88425 2.49803,6.01182 3.84449,9.23505 2.56299,6.47835 5.17323,13.6063 7.27087,21.326 1.17284,3.83622 2.21811,7.81064 3.18662,11.8949 1.09843,4.06772 1.87205,8.29134 2.67992,12.5752 0.876379,4.28268 1.56142,8.66339 2.23583,13.1043 0.780709,4.43032 1.23071,8.9445 1.69725,13.5 0.930709,9.11103 1.4941,18.3839 1.85669,27.6614 0.0980316,9.28465 0.0661418,18.5634 -0.322441,27.6756 -0.232677,9.12048 -1.20827,18.0461 -2.02323,26.6788 -1.81654,17.2441 -4.63937,33.1796 -7.65001,46.6843 -2.94331,13.5189 -6.21497,24.5858 -8.68347,32.263 -2.49803,7.66772 -4.24607,11.9386 -4.24489,11.9374z"/>
  <path class="fil5" d="M884.435 1558.87c0,0 -2.5004,-18.3744 -2.50984,-46.089 -0.0366142,-6.9319 0.046063,-14.4331 0.382677,-22.3677 0.351969,-7.92757 0.692127,-16.3099 1.50709,-24.9366 0.761812,-8.63741 1.54488,-17.5772 2.83229,-26.5996 1.22717,-9.03426 2.69646,-18.1914 4.29685,-27.3307 1.83307,-9.10158 3.79016,-18.1807 6.02599,-27.0567 1.08543,-4.44922 2.23347,-8.8382 3.58819,-13.1315 1.24961,-4.31221 2.58662,-8.54883 3.9874,-12.685 2.66339,-8.32205 5.8063,-16.1929 9.00237,-23.5571 3.12756,-7.3878 6.53268,-14.1933 9.9815,-20.302 1.63465,-3.09567 3.38032,-5.97048 5.10355,-8.66457 1.68898,-2.70709 3.34016,-5.24292 5.04922,-7.52835 3.18662,-4.71378 6.42402,-8.48977 9.08032,-11.5701 2.52756,-3.17244 5.06693,-5.2193 6.52914,-6.80079 1.54134,-1.51772 2.3563,-2.32914 2.3563,-2.32914 0,0 -0.618898,0.977954 -1.77992,2.80866 -1.11024,1.86732 -2.95158,4.4126 -4.87914,7.93111 -1.99843,3.46654 -4.3441,7.68544 -6.75945,12.6709 -1.29449,2.43425 -2.49449,5.12244 -3.7063,7.97717 -1.24843,2.8311 -2.64803,5.75434 -3.8374,8.9445 -2.55118,6.27402 -5.01142,13.2012 -7.49764,20.5477 -2.44606,7.36772 -4.72087,15.2386 -6.98032,23.4047 -2.34095,8.14134 -4.16811,16.7327 -6.24804,25.3973 -2.03386,8.67638 -3.76654,17.5807 -5.42717,26.5028 -1.72323,8.90906 -3.32481,17.8536 -4.68426,26.7071 -1.31811,8.84646 -2.84528,17.5441 -3.95197,26.015 -1.15512,8.47442 -2.27717,16.6689 -3.33307,24.437 -0.970867,7.79646 -1.89095,15.1701 -2.7437,21.9768 -3.23032,27.3792 -5.38583,45.6284 -5.38465,45.6284z"/>
  <path class="fil5" d="M991.279 1548.26c-1.63701,-3.60945 -3.76772,-6.95197 -6.15709,-10.0323 -1.22953,-1.51772 -2.45669,-3.01181 -3.81733,-4.37953 -1.33228,-1.38898 -2.75197,-2.68937 -4.25552,-3.85158 -1.46929,-1.20827 -3.07205,-2.21221 -4.68071,-3.18071 -0.785434,-0.498426 -1.6689,-0.839764 -2.48977,-1.28268 -0.809056,-0.442914 -1.65473,-0.82441 -2.53937,-1.10197l-2.60433 -0.93189 -2.68465 -0.63189c-1.75984,-0.484252 -3.6378,-0.454725 -5.42717,-0.72756l-3.93189 -0.595276 1.48819 -3.73465 8.83229 -22.128 8.67757 -22.1977 17.1177 -44.4485 16.6701 -44.5784 7.96182 -22.4055c2.79095,-7.41851 5.27953,-14.9339 7.90276,-22.4138 2.59606,-7.48347 5.22402,-14.961 7.5626,-22.5189l7.45749 -22.552 6.90119 -22.7138c2.51929,-7.52127 4.34764,-15.1973 6.55158,-22.8012l3.20079 -11.4354 2.84528 -11.5087c1.7563,-7.69961 3.99567,-15.3496 5.40355,-23.1189 1.49055,-7.76103 3.1252,-15.5303 4.54607,-23.341 0.99567,-7.84371 2.1437,-15.7193 3.30473,-23.6504 0.103937,7.95473 0.193701,15.965 0.129921,24 -0.322441,8.00079 -1.2685,15.9496 -1.90394,23.9634 -0.266929,4.01575 -0.784253,7.99134 -1.47047,11.9339l-1.8626 11.8772 -1.90394 11.8866 -2.48977 11.7543c-1.7563,7.81064 -3.16063,15.737 -5.23583,23.4603l-6.08504 23.2429 -6.75001 23.0327c-2.27362,7.67599 -4.83307,15.248 -7.36536,22.8331 -2.55709,7.5756 -4.95591,15.2067 -7.71733,22.7091l-8.29843 22.487 -8.66103 22.3453c-2.93504,7.42205 -6.12874,14.7508 -9.18072,22.128 -6.12048,14.7449 -12.6756,29.3079 -19.4173,43.78 -3.27756,7.2756 -6.85158,14.4201 -10.3406,21.5988 -3.56693,7.15158 -7.06536,14.3067 -10.865,21.3721l-2.44252 -4.32638c2.08583,0.512599 4.20945,0.747638 6.21024,1.51299l3.00827 1.05473c0.973229,0.424016 1.91103,0.923623 2.86181,1.37953 0.96378,0.42874 1.87677,0.96378 2.74252,1.55906 0.87756,0.579922 1.79882,1.09252 2.60551,1.7563 1.64291,1.29567 3.2374,2.62323 4.65237,4.12677 1.45866,1.45158 2.78622,3.02953 3.98859,4.66654 1.2378,1.61811 2.33268,3.32481 3.32481,5.08111 1.95591,3.52796 3.56457,7.22481 4.62992,11.0469z"/>
  <path class="fil5" d="M1005.86 1508.61c0,0 0.786615,-1.95827 2.56772,-5.13544 1.7563,-3.19607 4.46693,-7.63583 8.20276,-12.5976 3.67087,-5.01733 8.35867,-10.5579 13.878,-16.0323 2.7,-2.79803 5.74961,-5.42126 8.79804,-8.1378 3.15118,-2.61496 6.41339,-5.19685 9.77127,-7.65355 3.48898,-2.29252 6.79961,-4.82835 10.4339,-6.79252 3.56575,-2.05748 7.05001,-4.10433 10.6748,-5.67166 3.57874,-1.63701 6.99922,-3.24095 10.4658,-4.32992 3.44646,-1.11496 6.59292,-2.32795 9.7252,-2.90433 3.06851,-0.73819 5.9067,-1.25433 8.40119,-1.69606 2.51221,-0.402756 4.78465,-0.425197 6.59764,-0.563386 3.65197,-0.204331 5.72245,-0.147638 5.72245,-0.147638 0.0011811,0 -1.82599,1.13032 -4.99843,2.80276 -1.56614,0.812599 -3.47599,1.80473 -5.66693,2.93386 -2.1248,1.26732 -4.50473,2.67874 -7.12441,4.05237 -2.64213,1.31339 -5.27363,3.29646 -8.20276,4.93819 -2.9504,1.61811 -5.8689,3.7063 -8.97757,5.64922 -3.13937,1.86614 -6.18308,4.17756 -9.41576,6.2563 -3.2315,2.07874 -6.34016,4.50591 -9.56694,6.70394 -3.17481,2.31024 -6.35906,4.62048 -9.47953,6.8941 -3.10394,2.34213 -6.15591,4.64764 -9.11221,6.87993 -5.96103,4.52244 -11.5228,8.74607 -16.2898,12.3662 -4.76575,3.68859 -8.89016,6.70512 -11.7756,8.84764 -2.90551,2.12599 -4.62992,3.33898 -4.62874,3.3378z"/>
 </g>
</svg>
