<?xml version="1.0" encoding="UTF-8"?>
<!DOCTYPE svg PUBLIC "-//W3C//DTD SVG 1.1//EN" "http://www.w3.org/Graphics/SVG/1.1/DTD/svg11.dtd">
<!-- Creator: CorelDRAW -->
<svg xmlns="http://www.w3.org/2000/svg" xml:space="preserve" width="2048px" height="2048px" style="shape-rendering:geometricPrecision; text-rendering:geometricPrecision; image-rendering:optimizeQuality; fill-rule:evenodd; clip-rule:evenodd"
viewBox="0 0 2048 2048"
 xmlns:xlink="http://www.w3.org/1999/xlink">
 <defs>
  <style type="text/css">
   <![CDATA[
    .fil2 {fill:none}
    .fil5 {fill:#0277BD}
    .fil3 {fill:#039BE5}
    .fil4 {fill:#4FC3F7}
    .fil6 {fill:#E1F5FE}
    .fil1 {fill:#E6C047}
    .fil0 {fill:#FFD54F}
   ]]>
  </style>
   <clipPath id="id0">
    <path d="M1024 -0.0011811c565.539,0 1024,458.462 1024,1024 0,565.539 -458.462,1024 -1024,1024 -565.539,0 -1024,-458.462 -1024,-1024 0,-565.539 458.462,-1024 1024,-1024z"/>
   </clipPath>
 </defs>
 <g id="Layer_x0020_1">
  <metadata id="CorelCorpID_0Corel-Layer"/>
  <path class="fil0" d="M1024 -0.0011811c565.539,0 1024,458.462 1024,1024 0,565.539 -458.462,1024 -1024,1024 -565.539,0 -1024,-458.462 -1024,-1024 0,-565.539 458.462,-1024 1024,-1024z"/>
  <g style="clip-path:url(#id0)">
   <g id="_300480656">
    <g>
     <polygon id="_3070942961" class="fil1" points="1578.92,761.318 2714.8,1897.2 2714.66,1898.93 1578.78,763.047 "/>
     <polygon id="_307094344" class="fil1" points="1578.78,763.047 2714.66,1898.93 2714.31,1903.43 2713.97,1907.98 2713.62,1912.59 2713.27,1917.24 2712.91,1921.94 2712.54,1926.67 2712.16,1931.45 2711.75,1936.25 2711.33,1941.07 2710.87,1945.92 2710.39,1950.78 2709.87,1955.65 2709.32,1960.53 2708.73,1965.41 2708.09,1970.29 2707.41,1975.16 2706.67,1980.02 2705.88,1984.86 2705.03,1989.68 2704.12,1994.47 2703.14,1999.23 2702.1,2003.96 2700.98,2008.65 2699.78,2013.29 2698.51,2017.89 2697.15,2022.43 2695.71,2026.91 2694.17,2031.33 2692.54,2035.69 2690.81,2039.97 2688.98,2044.17 2687.05,2048.29 1551.16,912.409 1553.1,908.287 1554.93,904.084 1556.66,899.803 1558.29,895.451 1559.82,891.031 1561.27,886.549 1562.63,882.008 1563.9,877.412 1565.1,872.768 1566.22,868.08 1567.26,863.352 1568.24,858.589 1569.15,853.795 1570,848.975 1570.79,844.133 1571.53,839.274 1572.21,834.405 1572.85,829.527 1573.44,824.646 1573.99,819.768 1574.51,814.896 1574.99,810.035 1575.44,805.189 1575.87,800.364 1576.28,795.564 1576.66,790.792 1577.03,786.056 1577.39,781.358 1577.74,776.704 1578.09,772.098 1578.43,767.544 "/>
     <polygon id="_307095472" class="fil1" points="1551.16,912.409 2687.05,2048.29 2685.23,2051.89 2683.34,2055.43 2681.37,2058.91 2679.32,2062.33 2677.2,2065.69 2675,2069 2672.74,2072.25 2670.41,2075.45 2668.01,2078.59 2665.55,2081.68 2663.04,2084.73 2660.46,2087.72 2657.83,2090.67 2655.15,2093.57 2652.41,2096.43 2649.63,2099.24 2646.8,2102.01 2643.93,2104.75 2641.01,2107.44 2638.06,2110.09 2635.07,2112.71 2632.05,2115.29 2629,2117.84 2625.91,2120.36 2622.8,2122.85 2619.66,2125.3 2616.5,2127.73 2613.33,2130.13 2610.13,2132.51 2606.92,2134.86 2603.69,2137.18 2600.46,2139.49 1464.57,1003.61 1467.81,1001.3 1471.04,998.974 1474.25,996.623 1477.44,994.248 1480.62,991.848 1483.78,989.421 1486.92,986.964 1490.03,984.478 1493.11,981.961 1496.17,979.412 1499.19,976.829 1502.18,974.211 1505.13,971.555 1508.05,968.864 1510.92,966.132 1513.75,963.36 1516.53,960.545 1519.26,957.688 1521.95,954.786 1524.58,951.839 1527.15,948.844 1529.67,945.802 1532.13,942.708 1534.53,939.564 1536.86,936.368 1539.12,933.118 1541.31,929.812 1543.44,926.449 1545.49,923.03 1547.46,919.55 1549.35,916.011 "/>
     <polygon id="_307094944" class="fil1" points="1464.57,1003.61 2600.46,2139.49 2573.93,2158.27 1438.05,1022.39 "/>
     <polygon id="_307095256" class="fil1" points="1524.27,1090.38 2660.16,2226.26 2662.9,2229.26 2665.58,2232.3 2668.21,2235.4 2670.77,2238.55 2673.27,2241.74 2675.71,2245 2678.07,2248.31 2680.37,2251.67 2682.59,2255.1 2684.74,2258.58 2686.8,2262.13 2688.79,2265.74 2690.69,2269.41 1554.81,1133.52 1552.91,1129.85 1550.92,1126.25 1548.86,1122.7 1546.71,1119.22 1544.49,1115.79 1542.19,1112.43 1539.82,1109.12 1537.39,1105.86 1534.89,1102.66 1532.32,1099.52 1529.7,1096.42 1527.01,1093.38 "/>
     <polygon id="_307095496" class="fil1" points="1554.81,1133.52 2690.69,2269.41 2692.72,2273.6 2694.65,2277.87 2696.46,2282.22 2698.18,2286.63 2699.79,2291.11 2701.31,2295.65 2702.74,2300.25 2704.09,2304.9 2705.35,2309.6 2706.53,2314.34 2707.63,2319.12 2708.66,2323.94 2709.62,2328.79 2710.52,2333.66 2711.35,2338.55 2712.13,2343.47 2712.86,2348.39 2713.53,2353.32 2714.16,2358.26 2714.74,2363.2 2715.29,2368.13 2715.8,2373.05 2716.27,2377.96 2716.72,2382.86 2717.15,2387.73 2717.55,2392.57 2717.94,2397.38 2718.31,2402.16 2718.68,2406.9 2719.03,2411.59 2719.39,2416.24 2719.75,2420.83 1583.86,1284.95 1583.51,1280.36 1583.15,1275.71 1582.8,1271.02 1582.43,1266.28 1582.06,1261.5 1581.67,1256.69 1581.27,1251.85 1580.84,1246.98 1580.39,1242.08 1579.92,1237.17 1579.41,1232.25 1578.86,1227.32 1578.28,1222.38 1577.65,1217.44 1576.98,1212.51 1576.25,1207.58 1575.47,1202.67 1574.64,1197.78 1573.74,1192.9 1572.78,1188.06 1571.75,1183.24 1570.64,1178.46 1569.46,1173.72 1568.21,1169.02 1566.86,1164.37 1565.43,1159.77 1563.91,1155.23 1562.29,1150.75 1560.58,1146.33 1558.76,1141.99 1556.84,1137.72 "/>
     <polygon id="_307095136" class="fil1" points="1583.86,1284.95 2719.75,2420.83 2719.88,2422.56 1584,1286.68 "/>
     <polygon id="_307095304" class="fil1" points="1584,1286.68 2719.88,2422.56 2708.82,2421.46 1572.94,1285.57 "/>
     <polygon id="_307095760" class="fil1" points="1572.94,1285.57 2708.82,2421.46 2705.37,2421.11 2701.92,2420.77 2698.46,2420.43 2695,2420.09 2691.53,2419.75 2688.06,2419.4 2684.59,2419.06 2681.11,2418.71 2677.63,2418.36 2674.15,2418.01 2670.66,2417.65 2667.18,2417.28 2663.69,2416.92 2660.21,2416.54 2656.72,2416.16 2653.24,2415.76 2649.76,2415.36 2646.28,2414.95 2642.8,2414.54 2639.32,2414.11 2635.85,2413.66 2632.38,2413.21 2628.91,2412.75 2625.45,2412.27 2621.99,2411.77 2618.54,2411.27 2615.1,2410.74 2611.66,2410.2 2608.23,2409.65 2604.8,2409.07 2601.38,2408.48 2597.97,2407.87 1462.09,1271.99 1465.5,1272.6 1468.92,1273.19 1472.35,1273.76 1475.78,1274.32 1479.22,1274.86 1482.66,1275.38 1486.11,1275.89 1489.57,1276.38 1493.03,1276.86 1496.5,1277.33 1499.97,1277.78 1503.44,1278.22 1506.92,1278.65 1510.39,1279.07 1513.88,1279.48 1517.36,1279.88 1520.84,1280.27 1524.33,1280.66 1527.81,1281.03 1531.3,1281.4 1534.78,1281.77 1538.27,1282.13 1541.75,1282.48 1545.23,1282.83 1548.7,1283.18 1552.18,1283.52 1555.65,1283.86 1559.12,1284.21 1562.58,1284.55 1566.04,1284.89 1569.49,1285.23 "/>
     <polygon id="_307096168" class="fil1" points="1302.85,1162.08 2438.73,2297.97 2420.58,2309.61 1284.7,1173.73 "/>
     <polygon id="_307096336" class="fil1" points="1388.26,1248.35 2524.14,2384.23 2521.33,2382.68 2518.55,2381.07 2515.82,2379.42 2513.13,2377.72 2510.49,2375.97 2507.88,2374.18 2505.31,2372.35 2502.79,2370.48 2500.3,2368.56 2497.84,2366.6 2495.43,2364.61 2493.04,2362.58 2490.7,2360.5 2488.38,2358.4 2486.1,2356.26 2483.85,2354.08 2481.63,2351.87 2479.44,2349.63 1343.56,1213.75 1345.75,1215.99 1347.97,1218.2 1350.22,1220.37 1352.5,1222.52 1354.82,1224.62 1357.16,1226.69 1359.55,1228.73 1361.96,1230.72 1364.42,1232.68 1366.9,1234.59 1369.43,1236.47 1372,1238.3 1374.6,1240.09 1377.25,1241.83 1379.94,1243.53 1382.67,1245.19 1385.44,1246.79 "/>
     <polygon id="_307096048" class="fil1" points="1462.09,1271.99 2597.97,2407.87 2595.58,2407.43 2593.19,2406.98 2590.8,2406.51 2588.42,2406.03 2586.04,2405.54 2583.65,2405.03 2581.28,2404.5 2578.9,2403.96 2576.53,2403.4 2574.17,2402.83 2571.81,2402.23 2569.45,2401.62 2567.11,2400.98 2564.76,2400.33 2562.43,2399.65 2560.1,2398.96 2557.78,2398.24 2555.46,2397.49 2553.16,2396.72 2550.86,2395.93 2548.58,2395.11 2546.3,2394.27 2544.03,2393.4 2541.77,2392.5 2539.53,2391.57 2537.29,2390.62 2535.07,2389.63 2532.86,2388.61 2530.66,2387.57 2528.48,2386.49 2526.3,2385.38 2524.14,2384.23 1388.26,1248.35 1390.42,1249.5 1392.59,1250.61 1394.78,1251.68 1396.98,1252.73 1399.19,1253.75 1401.41,1254.73 1403.65,1255.69 1405.89,1256.62 1408.15,1257.51 1410.42,1258.39 1412.69,1259.23 1414.98,1260.05 1417.28,1260.84 1419.58,1261.61 1421.9,1262.35 1424.22,1263.07 1426.55,1263.77 1428.88,1264.45 1431.22,1265.1 1433.57,1265.74 1435.93,1266.35 1438.29,1266.94 1440.65,1267.52 1443.02,1268.08 1445.4,1268.62 1447.77,1269.15 1450.15,1269.66 1452.54,1270.15 1454.92,1270.63 1457.31,1271.1 1459.7,1271.55 "/>
     <polygon id="_307096120" class="fil1" points="1284.7,1173.73 2420.58,2309.61 2416.41,2312.25 2412.2,2314.84 2407.96,2317.38 2403.67,2319.88 2399.35,2322.32 2395,2324.72 2390.62,2327.08 2386.2,2329.38 2381.76,2331.64 2377.28,2333.86 2372.78,2336.02 2368.26,2338.15 2363.71,2340.23 2359.14,2342.26 2354.54,2344.25 2349.93,2346.2 2345.3,2348.11 2340.65,2349.97 2335.98,2351.79 2331.3,2353.57 2326.61,2355.3 2321.9,2357 2317.19,2358.65 2312.46,2360.27 2307.73,2361.84 2302.99,2363.37 2298.25,2364.87 2293.5,2366.33 2288.75,2367.74 2284,2369.12 2279.26,2370.46 2274.51,2371.77 1138.63,1235.89 1143.37,1234.58 1148.12,1233.24 1152.87,1231.86 1157.62,1230.44 1162.37,1228.99 1167.11,1227.49 1171.85,1225.96 1176.58,1224.38 1181.31,1222.77 1186.02,1221.12 1190.73,1219.42 1195.42,1217.68 1200.1,1215.91 1204.76,1214.09 1209.41,1212.22 1214.05,1210.32 1218.66,1208.37 1223.25,1206.38 1227.83,1204.35 1232.38,1202.27 1236.9,1200.14 1241.4,1197.97 1245.88,1195.76 1250.32,1193.5 1254.74,1191.19 1259.12,1188.84 1263.47,1186.44 1267.79,1184 1272.08,1181.5 1276.32,1178.96 1280.53,1176.37 "/>
     <polygon id="_307095712" class="fil1" points="1138.63,1235.89 2274.51,2371.77 2268.05,2373.48 2261.57,2375.14 2255.07,2376.74 2248.54,2378.28 2242.01,2379.76 2235.45,2381.18 2228.88,2382.54 2222.29,2383.85 2215.69,2385.1 2209.08,2386.29 2202.45,2387.42 2195.81,2388.5 2189.16,2389.52 2182.5,2390.48 2175.83,2391.4 2169.16,2392.25 2162.47,2393.05 2155.78,2393.8 2149.09,2394.49 2142.39,2395.13 2135.69,2395.72 2128.98,2396.25 2122.28,2396.73 2115.57,2397.16 2108.86,2397.54 2102.16,2397.86 2095.46,2398.14 2088.76,2398.36 2082.06,2398.53 2075.37,2398.66 2068.68,2398.73 2062,2398.75 926.121,1262.87 932.8,1262.85 939.486,1262.77 946.177,1262.65 952.874,1262.48 959.574,1262.25 966.277,1261.98 972.983,1261.65 979.69,1261.28 986.396,1260.85 993.102,1260.37 999.807,1259.83 1006.51,1259.25 1013.21,1258.61 1019.9,1257.92 1026.59,1257.17 1033.28,1256.37 1039.95,1255.51 1046.62,1254.6 1053.28,1253.64 1059.93,1252.61 1066.57,1251.54 1073.2,1250.4 1079.81,1249.21 1086.41,1247.96 1093,1246.66 1099.57,1245.3 1106.13,1243.88 1112.66,1242.4 1119.18,1240.86 1125.68,1239.26 1132.17,1237.6 "/>
     <polygon id="_307095928" class="fil1" points="926.121,1262.87 2062,2398.75 2056.53,2398.72 2050.92,2398.63 2045.19,2398.48 2039.34,2398.28 2033.38,2398.02 2027.32,2397.7 2021.17,2397.33 2014.94,2396.91 2008.63,2396.44 2002.26,2395.92 1995.83,2395.36 1989.35,2394.75 1982.83,2394.1 1976.28,2393.4 1969.71,2392.67 1963.13,2391.89 1956.54,2391.08 1949.95,2390.23 1943.38,2389.34 1936.82,2388.42 1930.3,2387.48 1923.82,2386.49 1917.38,2385.49 1910.99,2384.45 1904.68,2383.39 1898.43,2382.3 1892.26,2381.19 1886.19,2380.06 1880.21,2378.91 1874.34,2377.74 1868.59,2376.55 1862.96,2375.35 727.082,1239.47 732.71,1240.67 738.464,1241.85 744.332,1243.02 750.309,1244.18 756.383,1245.31 762.547,1246.42 768.794,1247.5 775.113,1248.57 781.496,1249.6 787.934,1250.61 794.42,1251.59 800.943,1252.54 807.496,1253.46 814.07,1254.34 820.655,1255.2 827.245,1256.01 833.829,1256.78 840.4,1257.52 846.949,1258.22 853.466,1258.87 859.945,1259.48 866.375,1260.04 872.748,1260.56 879.055,1261.03 885.289,1261.45 891.439,1261.82 897.498,1262.13 903.458,1262.4 909.308,1262.6 915.041,1262.75 920.649,1262.84 "/>
     <polygon id="_307095736" class="fil1" points="727.082,1239.47 1862.96,2375.35 1858.77,2374.29 1854.58,2373.21 1850.41,2372.1 1846.24,2370.97 1842.09,2369.81 1837.94,2368.62 1833.81,2367.41 1829.69,2366.18 1825.58,2364.91 1821.49,2363.62 1817.41,2362.31 1813.34,2360.96 1809.29,2359.59 1805.25,2358.2 1801.23,2356.77 1797.22,2355.32 1793.23,2353.84 1789.26,2352.34 1785.3,2350.81 1781.36,2349.25 1777.44,2347.66 1773.54,2346.04 1769.66,2344.4 1765.79,2342.72 1761.95,2341.02 1758.12,2339.29 1754.32,2337.54 1750.54,2335.75 1746.78,2333.93 1743.04,2332.09 1739.32,2330.22 1735.63,2328.31 599.749,1192.43 603.441,1194.33 607.157,1196.21 610.895,1198.05 614.656,1199.87 618.437,1201.65 622.242,1203.41 626.065,1205.14 629.91,1206.84 633.774,1208.51 637.658,1210.16 641.56,1211.78 645.481,1213.36 649.42,1214.92 653.377,1216.46 657.351,1217.96 661.341,1219.44 665.349,1220.89 669.37,1222.31 673.408,1223.71 677.461,1225.08 681.527,1226.42 685.609,1227.74 689.703,1229.03 693.811,1230.29 697.93,1231.53 702.062,1232.74 706.205,1233.93 710.36,1235.09 714.526,1236.22 718.701,1237.33 722.887,1238.41 "/>
     <polygon id="_307096360" class="fil1" points="599.749,1192.43 1735.63,2328.31 1729.58,2325.1 1723.5,2321.75 1717.42,2318.25 1711.33,2314.61 1705.26,2310.82 1699.22,2306.9 1693.22,2302.84 1687.28,2298.63 1681.42,2294.29 1675.64,2289.81 1669.97,2285.19 1664.41,2280.43 528.528,1144.55 534.085,1149.31 539.759,1153.93 545.536,1158.41 551.4,1162.75 557.338,1166.95 563.334,1171.02 569.376,1174.94 575.448,1178.72 581.535,1182.36 587.624,1185.86 593.7,1189.22 "/>
    </g>
    <path id="_300480872" class="fil1" d="M599.749 850.482c38.8654,-20.2429 81.6627,-35.5796 125.972,-46.6914 59.7827,-13.1244 142.315,-23.7496 200.4,-23.7496 70.9241,0 143.114,8.28426 211.667,26.7555 50.6315,13.6417 101.85,33.5823 146.18,61.878l17.798 11.3599 12.6614 -16.8969c19.9134,-26.5713 42.3071,-50.237 72.0863,-65.6906 21.7583,-11.2902 45.6154,-17.387 69.6213,-21.6792 33.815,-6.04489 68.8796,-9.09568 103.067,-12.4866l17.987 -1.79173 1.72914 -0.17126 -0.135827 1.72914c-3.74174,47.641 -6.40394,105.846 -27.6177,149.362 -18.8894,38.7508 -52.0241,66.717 -86.5902,91.1965l-26.524 18.7854 26.7213 18.502c35.7083,24.7252 70.1894,53.1296 90.0414,92.6304 22.2591,44.2855 25.2284,102.734 29.0516,151.427l0.137008 1.7315 -11.061 -1.10787c-36.7453,-3.67796 -74.5217,-6.97441 -110.848,-13.5839 -25.5095,-4.64174 -50.8819,-11.2559 -73.8296,-23.6398 -30.3024,-16.35 -52.8839,-41.1331 -72.8044,-68.7709l-12.6083 -17.4969 -18.1488 11.648c-44.2642,28.4079 -95.4568,48.443 -146.074,62.1544 -68.8004,18.6378 -141.301,26.987 -212.506,26.987 -57.6248,0 -139.699,-10.5024 -199.038,-23.4071 -44.7945,-11.1378 -88.0701,-26.5831 -127.334,-47.0339 -64.3264,-33.502 -135.75,-91.5615 -135.75,-170.975 0,-79.4127 71.4249,-137.472 135.75,-170.974z"/>
   </g>
  </g>
  <path class="fil2" d="M1024 -0.0011811c565.539,0 1024,458.462 1024,1024 0,565.539 -458.462,1024 -1024,1024 -565.539,0 -1024,-458.462 -1024,-1024 0,-565.539 458.462,-1024 1024,-1024z"/>
  <path class="fil3" d="M725.721 803.79c-44.3091,11.1118 -87.1064,26.4484 -125.972,46.6914 -64.3252,33.502 -135.75,91.5615 -135.75,170.974 0,79.4138 71.4237,137.473 135.75,170.975 39.2634,20.4508 82.539,35.8961 127.334,47.0339 19.5555,-71.0894 29.7851,-143.992 29.4366,-217.923 -0.346063,-73.8083 -11.2193,-146.719 -30.7984,-217.752z"/>
  <path class="fil4" d="M1584 1286.68l-0.137008 -1.7315c-3.82323,-48.6933 -6.79252,-107.141 -29.0516,-151.427 -19.852,-39.5008 -54.3331,-67.9052 -90.0414,-92.6304l-26.7213 -18.502 26.524 -18.7854c34.5662,-24.4795 67.7008,-52.4457 86.5902,-91.1965 21.2138,-43.5166 23.876,-101.721 27.6177,-149.362l0.135827 -1.72914 -1.72914 0.17126c-5.9941,0.602363 -11.9906,1.19882 -17.987,1.79173 -34.187,3.39095 -69.2516,6.44174 -103.067,12.4866 -24.0059,4.29213 -47.863,10.389 -69.6213,21.6792 -29.7792,15.4536 -52.1729,39.1193 -72.0863,65.6906l-12.6614 16.8969 -17.798 -11.3599c-44.3303,-28.2957 -95.5489,-48.2363 -146.18,-61.878 -68.5524,-18.4713 -140.743,-26.7555 -211.667,-26.7555 -58.0855,0 -140.617,10.6252 -200.4,23.7496l1.36181 435.675c59.3398,12.9047 141.413,23.4071 199.038,23.4071 71.2052,0 143.706,-8.34922 212.506,-26.987 50.6174,-13.7114 101.81,-33.7465 146.074,-62.1544l18.1488 -11.648 12.6083 17.4969c19.9205,27.6378 42.502,52.4209 72.8044,68.7709 22.9477,12.3839 48.3201,18.998 73.8296,23.6398 36.326,6.60945 74.1024,9.90591 110.848,13.5839l11.061 1.10787z"/>
  <path class="fil5" d="M975.531 893.805c-5.34213,-12.2575 -19.6099,-17.8618 -31.8662,-12.5197 -12.2563,5.34213 -17.8618,19.6099 -12.5197,31.8662 17.0847,38.8902 24.2929,73.9016 23.6362,105.82 -0.64252,31.2709 -8.95394,60.078 -22.9713,87.0473 -6.18071,11.8902 -1.55197,26.5406 10.3382,32.7201 11.889,6.17953 26.5394,1.55197 32.7189,-10.3382 17.2417,-33.1713 27.4736,-69.0284 28.2851,-108.482 0.798426,-38.8063 -7.62402,-80.5938 -27.6213,-126.113z"/>
  <path class="fil5" d="M1129.58 893.805c-5.34213,-12.2575 -19.6099,-17.8618 -31.8662,-12.5197 -12.2575,5.34213 -17.8606,19.6099 -12.5185,31.8662 17.0835,38.8902 24.2918,73.9016 23.6362,105.82 -0.643701,31.2709 -8.95394,60.078 -22.9725,87.0473 -6.18071,11.8902 -1.55315,26.5406 10.337,32.7201 11.8902,6.17953 26.5406,1.55197 32.7201,-10.3382 17.2417,-33.1713 27.4736,-69.0284 28.2851,-108.482 0.798426,-38.8063 -7.62402,-80.5938 -27.6213,-126.113z"/>
  <path class="fil6" d="M602.989 951.16c17.9421,0 32.4862,14.5441 32.4862,32.4851 0,17.9433 -14.5441,32.4874 -32.4862,32.4874 -17.941,0 -32.4874,-14.5441 -32.4874,-32.4874 0,-17.941 14.5465,-32.4851 32.4874,-32.4851z"/>
 </g>
</svg>
