<?xml version="1.0" encoding="UTF-8"?>
<!DOCTYPE svg PUBLIC "-//W3C//DTD SVG 1.1//EN" "http://www.w3.org/Graphics/SVG/1.1/DTD/svg11.dtd">
<!-- Creator: CorelDRAW -->
<svg xmlns="http://www.w3.org/2000/svg" xml:space="preserve" width="2048px" height="2048px" style="shape-rendering:geometricPrecision; text-rendering:geometricPrecision; image-rendering:optimizeQuality; fill-rule:evenodd; clip-rule:evenodd"
viewBox="0 0 2048 2048"
 xmlns:xlink="http://www.w3.org/1999/xlink">
 <defs>
  <style type="text/css">
   <![CDATA[
    .str0 {stroke:#4D4D4D;stroke-width:1.00039;stroke-linecap:round;stroke-linejoin:round}
    .fil2 {fill:none}
    .fil6 {fill:#181617}
    .fil7 {fill:#323230}
    .fil9 {fill:#573A22}
    .fil10 {fill:#5E3E24}
    .fil4 {fill:#826044}
    .fil3 {fill:#A17F5D}
    .fil5 {fill:#B39678}
    .fil1 {fill:#C0CA33}
    .fil0 {fill:#DCE775}
    .fil8 {fill:white}
   ]]>
  </style>
   <clipPath id="id0">
    <path d="M1024 -0.0011811c565.539,0 1024,458.462 1024,1024 0,565.539 -458.462,1024 -1024,1024 -565.539,0 -1024,-458.462 -1024,-1024 0,-565.539 458.462,-1024 1024,-1024z"/>
   </clipPath>
 </defs>
 <g id="Layer_x0020_1">
  <metadata id="CorelCorpID_0Corel-Layer"/>
  <path class="fil0" d="M1024 -0.0011811c565.539,0 1024,458.462 1024,1024 0,565.539 -458.462,1024 -1024,1024 -565.539,0 -1024,-458.462 -1024,-1024 0,-565.539 458.462,-1024 1024,-1024z"/>
  <g style="clip-path:url(#id0)">
   <g id="_300484496">
    <g>
     <polygon id="_3683318881" class="fil1" points="963.551,1452.24 2099.43,2588.12 2099.43,2588.12 2099.42,2588.12 2099.42,2588.12 2099.41,2588.12 963.533,1452.24 963.537,1452.24 963.541,1452.24 963.545,1452.24 "/>
     <polygon id="_368331528" class="fil1" points="956.1,470.507 2091.98,1606.39 2093.65,1608.56 2095.2,1611.03 2096.63,1613.78 2097.95,1616.8 2099.15,1620.1 2100.25,1623.65 964.373,487.772 963.272,484.216 962.064,480.92 960.746,477.894 959.315,475.146 957.767,472.681 "/>
     <polygon id="_368332464" class="fil1" points="799.365,485.93 1935.25,1621.81 1937.43,1624.4 1939.44,1627.13 1941.28,1630 1942.94,1633.01 1944.44,1636.16 1945.77,1639.43 1946.94,1642.83 1947.96,1646.35 1948.82,1650 1949.53,1653.75 1950.1,1657.62 1950.52,1661.6 1950.81,1665.68 1950.95,1669.87 1950.97,1674.14 1950.85,1678.52 1950.61,1682.98 1950.24,1687.53 1949.76,1692.16 1949.16,1696.86 1948.45,1701.65 1947.63,1706.5 1946.71,1711.42 1945.68,1716.41 1944.55,1721.45 1943.33,1726.55 807.448,590.67 808.67,585.569 809.796,580.524 810.824,575.54 811.75,570.618 812.571,565.765 813.282,560.982 813.881,556.274 814.364,551.644 814.729,547.096 814.97,542.634 815.085,538.262 815.071,533.983 814.925,529.8 814.641,525.719 814.218,521.742 813.653,517.872 812.94,514.114 812.077,510.472 811.061,506.948 809.888,503.548 808.555,500.274 807.058,497.13 805.394,494.119 803.56,491.247 801.551,488.516 "/>
     <polygon id="_368332608" class="fil1" points="881.554,791.097 2017.44,1926.98 2017.04,1928.43 2016.67,1929.83 2016.31,1931.19 2015.96,1932.51 2015.63,1933.79 2015.31,1935.03 2015,1936.23 2014.69,1937.39 2014.4,1938.51 2014.11,1939.59 2013.82,1940.63 2013.54,1941.63 2013.27,1942.6 2012.99,1943.53 2012.71,1944.43 2012.44,1945.29 876.555,809.404 876.832,808.546 877.109,807.65 877.385,806.72 877.662,805.752 877.944,804.747 878.227,803.704 878.515,802.623 878.811,801.504 879.114,800.345 879.425,799.146 879.747,797.908 880.08,796.629 880.426,795.309 880.787,793.947 881.162,792.543 "/>
     <polygon id="_368332008" class="fil1" points="876.555,809.404 2012.44,1945.29 1999.11,1994.09 863.227,858.206 "/>
     <polygon id="_368332056" class="fil1" points="863.227,858.206 1999.11,1994.09 1999.43,1995.66 1999.76,1997.22 2000.1,1998.76 2000.45,2000.29 2000.81,2001.8 2001.18,2003.29 2001.56,2004.77 2001.94,2006.23 2002.34,2007.67 2002.74,2009.1 2003.15,2010.51 2003.58,2011.91 2004.01,2013.28 2004.45,2014.65 2004.89,2015.99 2005.35,2017.32 2005.82,2018.63 2006.3,2019.93 2006.78,2021.2 2007.27,2022.47 2007.78,2023.71 2008.29,2024.94 2008.81,2026.15 2009.34,2027.34 2009.88,2028.52 2010.43,2029.68 2010.99,2030.83 2011.56,2031.95 2012.14,2033.06 2012.72,2034.16 2013.32,2035.23 2013.92,2036.29 878.042,900.407 877.437,899.349 876.84,898.273 876.255,897.18 875.677,896.071 875.11,894.944 874.551,893.801 874.001,892.64 873.461,891.462 872.931,890.268 872.409,889.058 871.896,887.829 871.393,886.585 870.898,885.322 870.414,884.044 869.938,882.748 869.47,881.437 869.013,880.109 868.564,878.763 868.125,877.401 867.694,876.023 867.272,874.629 866.86,873.218 866.456,871.79 866.062,870.346 865.677,868.886 865.3,867.408 864.931,865.915 864.573,864.406 864.223,862.881 863.883,861.338 863.551,859.781 "/>
     <polygon id="_368332440" class="fil1" points="878.229,897.146 2014.11,2033.03 2014.15,2033.24 2014.17,2033.85 2014.17,2034.7 2014.14,2035.65 2014.07,2036.55 878.193,900.664 878.257,899.77 878.287,898.821 878.291,897.966 878.27,897.357 "/>
     <polygon id="_368332104" class="fil1" points="878.193,900.664 2014.07,2036.55 2014.15,2036.68 2014.23,2036.81 2014.3,2036.94 2014.38,2037.07 2014.46,2037.2 2014.54,2037.33 2014.62,2037.46 2014.69,2037.59 878.813,901.707 878.735,901.577 878.657,901.449 878.579,901.319 878.501,901.188 878.423,901.058 878.346,900.927 878.27,900.796 "/>
     <polygon id="_368332224" class="fil1" points="878.813,901.707 2014.69,2037.59 2026.09,2052.05 890.207,916.169 "/>
     <polygon id="_368332272" class="fil1" points="964.373,487.772 2100.25,1623.65 2100.07,1634.9 2099.8,1646.07 2099.44,1657.15 2098.97,1668.15 2098.41,1679.06 2097.73,1689.87 2096.92,1700.58 2096,1711.2 2094.94,1721.71 2093.73,1732.11 2092.38,1742.4 2090.88,1752.58 2089.21,1762.64 2087.37,1772.58 2085.36,1782.4 2083.16,1792.09 2080.78,1801.64 2078.19,1811.07 2075.41,1820.35 2072.41,1829.49 2069.19,1838.49 2065.75,1847.34 2062.08,1856.04 2058.17,1864.59 2054.01,1872.98 2049.6,1881.2 2044.93,1889.26 2039.99,1897.16 2034.78,1904.88 2029.29,1912.42 2023.51,1919.79 2017.44,1926.98 881.554,791.097 887.629,783.91 893.409,776.542 898.9,768.995 904.111,761.274 909.048,753.381 913.718,745.32 918.129,737.095 922.286,728.706 926.198,720.161 929.871,711.461 933.311,702.61 936.527,693.611 939.525,684.468 942.311,675.184 944.894,665.761 947.28,656.203 949.477,646.516 951.49,636.701 953.326,626.761 954.994,616.7 956.501,606.521 957.851,596.229 959.055,585.826 960.116,575.315 961.044,564.702 961.846,553.987 962.526,543.174 963.093,532.268 963.555,521.272 963.917,510.187 964.188,499.02 "/>
     <polygon id="_368332344" class="fil1" points="1486.68,1072.46 2622.56,2208.34 2630.49,2217.12 2638.14,2226.13 2645.51,2235.38 2652.59,2244.88 2659.4,2254.6 2665.92,2264.57 2672.17,2274.77 2678.14,2285.2 2683.83,2295.87 2689.25,2306.76 2694.39,2317.89 2699.26,2329.25 2703.86,2340.84 2708.18,2352.66 2712.24,2364.7 2716.03,2376.98 2719.55,2389.47 2722.81,2402.2 2725.79,2415.14 2728.52,2428.32 2730.98,2441.71 2733.18,2455.32 2735.11,2469.16 2736.79,2483.21 2738.21,2497.48 2739.37,2511.97 2740.27,2526.68 1604.39,1390.8 1603.49,1376.09 1602.33,1361.6 1600.91,1347.33 1599.23,1333.27 1597.3,1319.44 1595.1,1305.83 1592.64,1292.43 1589.91,1279.26 1586.92,1266.32 1583.67,1253.59 1580.15,1241.09 1576.36,1228.82 1572.3,1216.78 1567.98,1204.96 1563.38,1193.37 1558.51,1182.01 1553.36,1170.88 1547.95,1159.98 1542.26,1149.32 1536.29,1138.88 1530.04,1128.69 1523.52,1118.72 1516.71,1108.99 1509.63,1099.5 1502.26,1090.25 1494.61,1081.23 "/>
     <polygon id="_368332416" class="fil1" points="1538.04,1547.96 2673.92,2683.84 2589.71,2688.44 1453.83,1552.56 "/>
     <polygon id="_368332848" class="fil1" points="1453.83,1552.56 2589.71,2688.44 2589.4,2689.4 2589.08,2690.37 2588.76,2691.34 2588.42,2692.32 2588.08,2693.3 2587.74,2694.28 2587.38,2695.26 2587.02,2696.25 1451.14,1560.37 1451.5,1559.38 1451.85,1558.39 1452.2,1557.41 1452.54,1556.44 1452.87,1555.46 1453.2,1554.49 1453.52,1553.52 "/>
     <polygon id="_368333376" class="fil1" points="1451.14,1560.37 2587.02,2696.25 2418.93,2719.27 1283.05,1583.39 "/>
     <polygon id="_368333088" class="fil1" points="1060.01,1493.42 2195.89,2629.3 2192.29,2626.13 2188.73,2623.06 2185.19,2620.09 2181.69,2617.22 2178.22,2614.46 2174.78,2611.8 2171.38,2609.26 2168.01,2606.83 2164.68,2604.51 2161.39,2602.31 2158.13,2600.23 2154.91,2598.27 2151.72,2596.44 2148.58,2594.73 2145.47,2593.15 2142.41,2591.7 2139.38,2590.38 2136.4,2589.2 2133.46,2588.15 2130.57,2587.25 2127.71,2586.48 2124.91,2585.87 2122.14,2585.39 2119.43,2585.07 2116.76,2584.9 2114.13,2584.88 2111.56,2585.02 2109.03,2585.31 2106.56,2585.77 2104.13,2586.39 2101.76,2587.17 2099.43,2588.12 963.551,1452.24 965.874,1451.29 968.25,1450.51 970.677,1449.89 973.152,1449.43 975.679,1449.14 978.252,1449 980.876,1449.02 983.546,1449.19 986.263,1449.51 989.025,1449.98 991.833,1450.6 994.685,1451.36 997.581,1452.27 1000.52,1453.31 1003.5,1454.5 1006.53,1455.81 1009.59,1457.26 1012.7,1458.84 1015.84,1460.55 1019.02,1462.39 1022.25,1464.35 1025.5,1466.43 1028.8,1468.63 1032.13,1470.95 1035.5,1473.38 1038.9,1475.92 1042.34,1478.58 1045.81,1481.34 1049.31,1484.21 1052.84,1487.18 1056.41,1490.25 "/>
     <polygon id="_368333040" class="fil1" points="963.533,1452.24 2099.41,2588.12 2098.29,2588.65 2097.18,2589.23 2096.08,2589.84 2095,2590.49 2093.92,2591.19 2092.87,2591.93 2091.82,2592.71 2090.79,2593.53 2089.77,2594.4 2088.76,2595.31 2087.77,2596.26 2086.79,2597.26 2085.82,2598.3 2084.87,2599.39 2083.93,2600.52 2083.01,2601.7 947.129,1465.82 948.053,1464.64 948.99,1463.51 949.942,1462.42 950.909,1461.38 951.888,1460.38 952.88,1459.43 953.886,1458.52 954.905,1457.65 955.939,1456.83 956.984,1456.05 958.044,1455.31 959.116,1454.61 960.202,1453.96 961.299,1453.34 962.41,1452.77 "/>
     <polygon id="_368333280" class="fil1" points="963.537,1452.25 2099.42,2588.13 2099.42,2588.13 2099.43,2588.12 2099.43,2588.12 2099.43,2588.12 963.551,1452.24 963.548,1452.24 963.544,1452.24 963.541,1452.24 "/>
     <polygon id="_368333328" class="fil1" points="1098.07,1544.13 2233.95,2680.01 2230.77,2680.83 2227.65,2681.57 2224.6,2682.23 2221.62,2682.8 2218.72,2683.3 2215.89,2683.71 2213.14,2684.05 2210.46,2684.29 2207.86,2684.45 2205.34,2684.52 2202.9,2684.5 2200.55,2684.39 2198.27,2684.19 2196.08,2683.89 2193.97,2683.5 2191.96,2683.01 2190.02,2682.43 2188.18,2681.75 2186.43,2680.96 2184.76,2680.08 2183.19,2679.09 2181.72,2678 2180.33,2676.81 1044.45,1540.92 1045.83,1542.12 1047.31,1543.21 1048.88,1544.2 1050.54,1545.08 1052.3,1545.86 1054.14,1546.55 1056.07,1547.13 1058.09,1547.62 1060.2,1548.01 1062.39,1548.3 1064.67,1548.51 1067.02,1548.62 1069.46,1548.64 1071.98,1548.57 1074.58,1548.41 1077.26,1548.16 1080.01,1547.83 1082.84,1547.42 1085.74,1546.92 1088.72,1546.34 1091.77,1545.68 1094.88,1544.95 "/>
     <polygon id="_368332872" class="fil1" points="1104.18,1562.61 2240.06,2698.49 2238.23,2697.74 2236.63,2696.97 2235.25,2696.18 2234.09,2695.38 2233.15,2694.56 1097.27,1558.68 1098.21,1559.5 1099.37,1560.3 1100.75,1561.09 1102.35,1561.85 "/>
     <polygon id="_368333256" class="fil1" points="1283.05,1583.39 2418.93,2719.27 2413.45,2719.61 2407.97,2719.81 2402.48,2719.88 2397,2719.83 2391.52,2719.66 2386.04,2719.39 2380.56,2719.03 2375.07,2718.58 2369.59,2718.06 2364.11,2717.47 2358.63,2716.82 2353.15,2716.13 2347.66,2715.4 2342.18,2714.64 2336.7,2713.86 2331.22,2713.08 2325.73,2712.29 2320.25,2711.51 2314.77,2710.75 2309.29,2710.02 2303.8,2709.33 2298.32,2708.69 2292.84,2708.1 2287.36,2707.57 2281.87,2707.13 2276.39,2706.76 2270.91,2706.49 2265.43,2706.32 2259.95,2706.27 2254.46,2706.34 2248.98,2706.54 2243.5,2706.88 1107.62,1570.99 1113.1,1570.65 1118.58,1570.46 1124.07,1570.39 1129.55,1570.44 1135.03,1570.61 1140.51,1570.88 1145.99,1571.24 1151.48,1571.69 1156.96,1572.21 1162.44,1572.8 1167.92,1573.45 1173.4,1574.14 1178.89,1574.87 1184.37,1575.63 1189.85,1576.41 1195.33,1577.19 1200.82,1577.98 1206.3,1578.76 1211.78,1579.52 1217.26,1580.25 1222.75,1580.94 1228.23,1581.58 1233.71,1582.17 1239.19,1582.7 1244.67,1583.14 1250.16,1583.51 1255.64,1583.78 1261.12,1583.94 1266.6,1584 1272.09,1583.93 1277.57,1583.73 "/>
     <polygon id="_368333352" class="fil1" points="768.981,1410.71 1904.86,2546.59 1904.43,2546.33 1903.99,2546.07 1903.55,2545.81 1903.11,2545.55 1902.67,2545.28 1902.23,2545.02 1901.79,2544.75 1901.35,2544.49 765.469,1408.61 765.91,1408.87 766.351,1409.14 766.79,1409.4 767.229,1409.67 767.669,1409.93 768.107,1410.19 768.544,1410.45 "/>
     <polygon id="_368332944" class="fil1" points="852.877,1564.17 1988.76,2700.05 1983.88,2700.33 1978.99,2700.59 1974.1,2700.84 1969.2,2701.08 1964.3,2701.3 1959.38,2701.5 1954.47,2701.68 1949.54,2701.85 1944.61,2702 1939.68,2702.13 1934.73,2702.24 1929.78,2702.33 1924.82,2702.41 1919.86,2702.46 1914.88,2702.5 1909.9,2702.52 1904.92,2702.51 1899.92,2702.49 1894.92,2702.44 1889.9,2702.37 1884.88,2702.28 1879.86,2702.17 1874.82,2702.04 1869.78,2701.88 1864.72,2701.7 1859.66,2701.5 1854.59,2701.28 1849.51,2701.02 1844.42,2700.75 1839.32,2700.45 1834.21,2700.13 1829.1,2699.78 693.215,1563.9 698.333,1564.24 703.44,1564.57 708.539,1564.87 713.629,1565.14 718.708,1565.39 723.78,1565.62 728.842,1565.82 733.895,1566 738.94,1566.16 743.976,1566.29 749.004,1566.4 754.023,1566.49 759.035,1566.56 764.039,1566.6 769.034,1566.63 774.022,1566.63 779.003,1566.62 783.975,1566.58 788.94,1566.53 793.899,1566.45 798.85,1566.36 803.794,1566.24 808.731,1566.11 813.662,1565.96 818.585,1565.8 823.503,1565.61 828.414,1565.41 833.318,1565.2 838.217,1564.96 843.109,1564.71 847.996,1564.45 "/>
     <polygon id="_368332992" class="fil1" points="693.215,1563.9 1829.1,2699.78 1822.63,2699.84 1817.01,2699.55 1812.19,2698.92 1808.13,2697.97 1804.79,2696.74 1802.14,2695.23 666.256,1559.35 668.908,1560.86 672.246,1562.09 676.307,1563.03 681.13,1563.66 686.754,1563.96 "/>
     <polygon id="_368333568" class="fil1" points="765.469,1408.61 1901.35,2544.49 1901.35,2544.49 1901.34,2544.48 1901.34,2544.48 1901.33,2544.48 1901.33,2544.48 1901.32,2544.47 765.44,1408.59 765.445,1408.59 765.449,1408.6 765.454,1408.6 765.46,1408.6 765.465,1408.6 "/>
     <polygon id="_368333640" class="fil1" points="765.436,1408.59 1901.32,2544.47 1901.31,2544.46 765.432,1408.58 "/>
     <polygon id="_368333592" class="fil1" points="765.432,1408.58 1901.31,2544.46 1893.16,2540.79 1885.15,2536.88 1877.29,2532.73 1869.57,2528.34 1862.01,2523.71 1854.6,2518.84 1847.35,2513.72 1840.24,2508.36 1833.29,2502.75 1826.5,2496.89 690.619,1361.01 697.412,1366.87 704.36,1372.48 711.465,1377.84 718.721,1382.96 726.132,1387.83 733.693,1392.46 741.406,1396.84 749.266,1400.99 757.275,1404.91 "/>
     <polygon id="_368333928" class="fil1" points="570.642,1105.47 1706.52,2241.35 1704.61,2241.2 1702.7,2241.01 1700.78,2240.78 1698.86,2240.5 1696.93,2240.19 1695.01,2239.84 1693.07,2239.44 1691.14,2239.01 1689.2,2238.54 1687.25,2238.03 1685.31,2237.48 1683.36,2236.9 1681.41,2236.28 1679.45,2235.63 1677.49,2234.93 1675.53,2234.21 1673.56,2233.45 1671.59,2232.65 1669.62,2231.82 1667.64,2230.96 1665.67,2230.06 1663.69,2229.13 1661.7,2228.17 1659.71,2227.18 1657.72,2226.16 1655.73,2225.11 1653.74,2224.03 1651.74,2222.91 1649.74,2221.77 1647.74,2220.6 1645.73,2219.41 1643.72,2218.18 507.84,1082.3 509.848,1083.52 511.855,1084.72 513.858,1085.89 515.857,1087.03 517.856,1088.14 519.851,1089.23 521.843,1090.28 523.833,1091.3 525.82,1092.29 527.804,1093.25 529.785,1094.18 531.763,1095.08 533.738,1095.94 535.711,1096.77 537.68,1097.56 539.646,1098.32 541.609,1099.05 543.569,1099.74 545.524,1100.4 547.478,1101.02 549.427,1101.6 551.373,1102.15 553.316,1102.66 555.256,1103.13 557.191,1103.56 559.125,1103.95 561.054,1104.31 562.979,1104.62 564.899,1104.89 566.817,1105.13 568.732,1105.32 "/>
     <polygon id="_368333784" class="fil1" points="507.84,1082.3 1643.72,2218.18 1641.23,2216.77 1638.8,2215.26 1636.46,2213.65 1634.19,2211.95 1632,2210.15 1629.9,2208.27 494.015,1072.39 496.124,1074.27 498.312,1076.07 500.58,1077.77 502.923,1079.37 505.344,1080.88 "/>
     <polygon id="_368333664" class="fil1" points="947.129,1465.82 2083.01,2601.7 2081.49,2604.92 2079.85,2608.13 2078.09,2611.35 2076.21,2614.56 2074.21,2617.77 2072.11,2620.98 2069.89,2624.18 2067.57,2627.37 2065.15,2630.56 2062.64,2633.74 2060.02,2636.91 2057.31,2640.08 2054.52,2643.23 2051.64,2646.37 2048.68,2649.5 2045.63,2652.61 2042.51,2655.72 2039.32,2658.81 2036.06,2661.88 2032.73,2664.94 2029.34,2667.98 2025.89,2671 2022.38,2674 2018.82,2676.98 2015.21,2679.95 2011.54,2682.89 2007.84,2685.81 2004.09,2688.71 2000.31,2691.58 1996.49,2694.43 1992.64,2697.25 1988.76,2700.05 852.877,1564.17 856.757,1561.37 860.607,1558.55 864.427,1555.7 868.211,1552.82 871.958,1549.93 875.663,1547.01 879.324,1544.07 882.938,1541.1 886.501,1538.12 890.01,1535.11 893.461,1532.09 896.853,1529.05 900.18,1526 903.442,1522.92 906.634,1519.83 909.752,1516.73 912.794,1513.61 915.758,1510.49 918.639,1507.35 921.433,1504.19 924.14,1501.03 926.754,1497.86 929.272,1494.68 931.692,1491.49 934.011,1488.3 936.225,1485.1 938.331,1481.89 940.326,1478.68 942.206,1475.47 943.968,1472.25 945.611,1469.04 "/>
     <polygon id="_368333904" class="fil1" points="1624.76,1401.87 2760.64,2537.76 2762.99,2540.73 2764.8,2543.93 2766.09,2547.37 2766.86,2551.04 2767.13,2554.92 2766.91,2559.02 2766.22,2563.32 2765.07,2567.83 2763.47,2572.53 2761.44,2577.42 2758.99,2582.5 2756.14,2587.75 2752.89,2593.18 2749.27,2598.77 2745.28,2604.52 2740.94,2610.43 2736.26,2616.48 2731.26,2622.68 2725.95,2629.01 2720.34,2635.47 2714.45,2642.05 2708.29,2648.76 2701.88,2655.57 2695.22,2662.5 2688.33,2669.52 2681.23,2676.64 2673.92,2683.84 1538.04,1547.96 1545.35,1540.75 1552.45,1533.64 1559.34,1526.61 1565.99,1519.69 1572.41,1512.88 1578.57,1506.17 1584.46,1499.59 1590.07,1493.12 1595.38,1486.79 1600.38,1480.6 1605.06,1474.54 1609.4,1468.64 1613.39,1462.89 1617.01,1457.3 1620.26,1451.87 1623.11,1446.62 1625.56,1441.54 1627.59,1436.65 1629.19,1431.95 1630.34,1427.44 1631.03,1423.13 1631.25,1419.04 1630.98,1415.15 1630.21,1411.49 1628.92,1408.05 1627.11,1404.84 "/>
    </g>
    <path id="_300484712" class="fil1" d="M963.551 1452.24c-0.00472441,0.00236221 -0.00944883,0.00472441 -0.0141732,0.00708662 0.00472441,-0.00708662 0.00944883,-0.00708662 0.0141732,-0.00708662zm-31.3607 -985.771c16.5638,-7.16221 26.5902,1.65236 32.1827,21.3036 -1.54725,120.395 -16.4268,227.648 -82.819,303.325 -2.1378,7.82717 -3.51142,13.8213 -4.99961,18.3071l-13.3276 48.802c3.4004,16.878 8.31142,31.004 14.8146,42.2008 0.187795,-6.30119 0.369685,-1.91811 0.151181,0.257481 0.204331,0.350788 0.411024,0.698032 0.620079,1.04291l11.3941 14.4614c13.5744,13.0063 31.5579,17.8772 54.3154,13.8437 96.0154,-38.0008 195.932,-54.2788 308.199,-1.73977 63.3331,18.3532 126.669,57.7158 190.003,103.928 101.461,79.3938 153.405,200.566 161.665,358.598 59.4603,16.6051 12.5835,79.8556 -66.3461,157.159l-84.2115 4.6004c-0.825591,2.56654 -1.72087,5.16969 -2.68937,7.80945l-168.092 23.0244c-58.4764,4.4126 -116.955,-16.8095 -175.432,-12.3969 -1.23071,-2.84646 -2.37874,-5.64213 -3.44292,-8.3882 -10.3736,-3.9626 -10.7599,-8.68583 -4.8,-13.8921 -0.465355,-1.54606 -0.89882,-3.07441 -1.30276,-4.58268 -34.3784,9.10158 -57.0804,5.20394 -61.6146,-18.9284 13.1386,-7.87678 22.8508,-17.1189 23.5122,-29.9823 0.0330709,-0.592914 0.0437008,-1.1941 0.0354331,-1.80236 -38.5134,-34.3382 -71.9469,-52.2166 -96.4548,-41.1792 -0.00826772,-0.00354331 -0.0129921,-0.00236221 -0.0177165,0 -6.02599,2.72244 -11.5134,7.17875 -16.4043,13.578 -15.5232,34.3264 -52.7304,68.6611 -94.252,98.3481 -52.0335,3.07441 -105.025,3.5941 -159.662,-0.270473 -73.5414,2.64567 2.64921,-59.2477 18.4949,-68.543 56.8075,-7.38544 88.317,-28.7398 57.2705,-84.6414 -1.16457,-0.690945 -2.33504,-1.39252 -3.51142,-2.10591 -0.0129921,-0.00590552 -0.0271654,-0.011811 -0.0377953,-0.022441 -87.7796,-37.9748 -150.665,-115.784 -182.498,-243.274 1.43858,-5.93268 2.36457,-11.5925 2.74725,-16.9606 0.263386,-3.68622 0.269292,-7.23544 0.00826772,-10.6406 -0.732284,-9.55749 -3.56811,-17.9882 -8.74371,-25.1658 -1.81181,-2.51103 -3.90827,-4.87205 -6.30355,-7.07245 -20.3551,-1.37244 -41.367,-9.95552 -62.8016,-23.1721 -27.0236,-14.5264 -41.328,-46.3181 -37.7268,-82.6229 0.362599,-3.65788 0.907087,-7.35945 1.63937,-11.0953 0.829134,-4.23426 1.89803,-8.51103 3.21496,-12.8102 2.53701,-8.27953 5.99292,-16.6441 10.4244,-24.9603 1.05945,-2.21575 2.12244,-4.4126 3.1878,-6.59056 25.9914,-53.1709 53.5689,-95.2453 83.8383,-118.462 30.2398,-32.6823 80.1272,-38.5122 118.226,-80.3646 -2.26654,-50.3693 13.7291,-106.547 13.1232,-162.312 4.62284,-68.7686 48.7288,-110.048 78.5634,-109.416 36.5091,16.5768 38.6433,62.3126 25.1173,117.007 23.4106,-27.6319 44.3894,-52.2213 66.2221,-74.2099 18.2669,-18.3992 37.1327,-34.9772 58.5201,-49.9914z"/>
   </g>
  </g>
  <path class="fil2" d="M1024 -0.0011811c565.539,0 1024,458.462 1024,1024 0,565.539 -458.462,1024 -1024,1024 -565.539,0 -1024,-458.462 -1024,-1024 0,-565.539 458.462,-1024 1024,-1024z"/>
  <path class="fil3" d="M964.373 487.772c-5.59252,-19.6512 -15.6189,-28.4658 -32.1827,-21.3036 -46.95,32.9587 -81.743,73.4493 -124.742,124.201 13.526,-54.6945 11.3917,-100.43 -25.1173,-117.007 -29.8347,-0.63189 -73.9406,40.6477 -78.5634,109.416 0.605906,55.7646 -15.3898,111.943 -13.1232,162.312 -38.0988,41.8524 -87.9863,47.6823 -118.226,80.3646 -31.5095,24.1677 -60.1028,68.7709 -87.0261,125.053 -28.9146,54.2622 -16.324,110.647 22.448,131.489 21.4347,13.2165 42.4465,21.7996 62.8016,23.1721 15.2221,13.9866 18.4595,34.3949 12.2917,59.8394 32.2075,128.988 96.2009,207.121 185.6,244.602 31.7941,56.4993 0.255118,78.0213 -56.8229,85.4422 -15.8457,9.29528 -92.0363,71.1886 -18.4949,68.543 54.6367,3.86457 107.628,3.34488 159.662,0.270473 41.5217,-29.687 78.7288,-64.0217 94.252,-98.3481 24.7807,-32.4189 64.8839,-15.1878 112.877,27.6012 0.191339,13.8106 -9.80316,23.5453 -23.5477,31.7847 5.42126,28.8555 36.8197,28.7799 83.093,12.1441 -24.9024,11.0197 -35.6835,20.961 -6.60001,27.867 107.796,2.77677 214.953,-0.840946 324.268,-11.7496l100.824 -5.50748c78.9296,-77.3032 125.806,-140.554 66.3461,-157.159 -8.25946,-158.033 -60.2032,-279.205 -161.665,-358.598 -63.3343,-46.2118 -126.67,-85.5745 -190.003,-103.928 -112.267,-52.539 -212.184,-36.2611 -308.199,1.73977 -44.2512,7.84253 -70.4504,-17.9811 -81.2953,-71.8064l18.3272 -67.1091c66.3922,-75.6768 81.2717,-182.93 82.819,-303.325z"/>
  <path class="fil4" d="M1059.97 1495.22c-0.66378,12.8622 -10.3736,22.1067 -23.5122,29.9823 5.42126,28.8555 36.8197,28.7799 83.093,12.1441 -24.9024,11.0197 -35.6835,20.961 -6.60001,27.867 59.4756,1.53189 118.758,1.1185 178.315,-1.39488 -4.75985,-51.6591 -65.5749,-92.5229 -139.912,-92.5229 -34.9111,0 -66.8386,9.01418 -91.3831,23.9244z"/>
  <path class="fil5" d="M1196.8 1455.86c-95.452,-1.61221 -122.219,38.7248 -89.1804,115.13 58.4764,-4.4126 116.955,16.8095 175.432,12.3969l168.092 -23.0244c87.0638,-237.306 -412.409,-181.365 -254.344,-104.503z"/>
  <path class="fil5" d="M964.373 487.772c-5.59252,-19.6512 -15.6189,-28.4658 -32.1827,-21.3036 -21.3874,15.0142 -40.2532,31.5922 -58.5201,49.9914 -46.9158,72.0863 -25.8166,197.153 -34.0028,301.46 36.8126,6.33898 33.5646,3.64961 41.8866,-26.8229 66.3922,-75.6768 81.2717,-182.93 82.819,-303.325z"/>
  <path class="fil5" d="M585.689 1137.71c0.261024,3.40512 0.255118,6.95434 -0.00826772,10.6406 20.1071,4.55552 41.2276,6.99804 63.0213,6.99804 134.907,0 244.271,-93.045 244.271,-207.822 0,-10.6583 -0.947245,-21.1276 -2.76614,-31.3547l-12.848 -16.3063c1.8189,10.226 0.418111,-28.702 0.418111,34.0146 0,62.7178 -109.363,207.823 -244.271,207.823 -16.3665,0 -32.3528,-1.37835 -47.817,-3.99331z"/>
  <path class="fil4" d="M488.58 944.218c-1.06417,2.17914 -2.12717,4.37481 -3.1878,6.59056 -28.9146,54.2622 -16.324,110.647 22.448,131.489 21.4347,13.2165 42.4465,21.7996 62.8016,23.1721 2.39528,2.2004 4.49174,4.56142 6.30355,7.07245 49.813,-25.5484 69.7749,-56.954 35.087,-99.0768 -25.3878,-78.8398 -57.391,-64.7079 -123.452,-69.2469z"/>
  <path class="fil4" d="M765.432 1408.58c1.0311,0.446457 2.06339,0.892914 3.10158,1.32756 31.7941,56.4993 0.255118,78.0213 -56.8229,85.4422 -15.8457,9.29528 -92.0363,71.1886 -18.4949,68.543 54.6367,3.86457 107.628,3.34488 159.662,0.270473 41.5217,-29.687 78.7288,-64.0217 94.252,-98.3481 4.89449,-6.40394 10.3878,-10.8626 16.4221,-13.578 -54.6485,1.20591 -109.625,9.97678 -198.119,-43.6571z"/>
  <circle class="fil5" transform="matrix(1.80719 -0.366975 0.307577 1.51468 683.394 888.054)" r="27.7252"/>
  <ellipse class="fil6" cx="679.134" cy="891.676" rx="26.9591" ry="26.9591"/>
  <circle class="fil7" cx="679.134" cy="891.676" r="16.175"/>
  <path class="fil8" d="M684.876 876.551c3.24331,1.23189 5.98701,3.47481 7.84607,6.34725 -0.493701,2.66929 -2.83229,4.69134 -5.64331,4.69134 -3.1689,0 -5.73898,-2.57008 -5.73898,-5.73898 0,-2.38819 1.46102,-4.43504 3.53622,-5.29961z"/>
  <path class="fil9" d="M499.156 1037.49c10.9795,-3.87874 16.8602,-14.1366 21.0189,-26.5418 -9.67442,2.38229 -17.9634,6.66733 -24.228,13.7339 -4.18701,-7.32402 -10.637,-11.0953 -17.8087,-13.7339 2.4437,12.4961 7.74331,21.5646 16.5697,26.3894l1.84606 26.0575 2.60197 -25.9051z"/>
  <circle class="fil10" cx="535.616" cy="1041.92" r="1.50893"/>
  <circle class="fil10" cx="536.272" cy="1031.79" r="1.50893"/>
  <circle class="fil10" cx="532.512" cy="1019.41" r="1.50893"/>
  <circle class="fil10" cx="530.522" cy="1006.58" r="1.50893"/>
  <circle class="fil10" cx="546.225" cy="1013.21" r="1.50893"/>
  <circle class="fil10" cx="546.004" cy="1023.83" r="1.50893"/>
  <circle class="fil10" cx="548.658" cy="1031.83" r="1.50893"/>
  <circle class="fil10" cx="547.552" cy="1044.44" r="1.50893"/>
  <circle class="fil10" cx="543.571" cy="1055.72" r="1.50893"/>
  <circle class="fil10" cx="531.407" cy="1058.37" r="1.50893"/>
  <circle class="fil10" cx="520.569" cy="1067.66" r="1.50893"/>
  <circle class="fil10" cx="532.291" cy="1070.76" r="1.50893"/>
  <circle class="fil10" cx="541.359" cy="1072.08" r="1.50893"/>
  <circle class="fil10" cx="512.941" cy="1000.6" r="1.50893"/>
  <circle class="fil10" cx="497.999" cy="1001.74" r="1.50893"/>
  <circle class="fil10" cx="482.325" cy="995.389" r="1.50893"/>
  <circle class="fil10" cx="490.376" cy="989.091" r="1.50893"/>
  <circle class="fil10" cx="502.403" cy="990.93" r="1.50893"/>
  <circle class="fil10" cx="525.843" cy="993.241" r="1.50893"/>
  <path class="fil2 str0" d="M482.009 995.306c-23.5181,-17.1307 -45.0567,-21.1807 -65.2571,-16.5945"/>
  <path class="fil2 str0" d="M489.729 988.659c-20.2725,-20.8701 -40.813,-28.5142 -61.4989,-27.4193"/>
  <path class="fil2 str0" d="M482.009 1006.9c-23.5181,-17.1307 -42.7146,-14.4449 -62.9138,-9.85867"/>
  <path class="fil2 str0" d="M540.384 1031.14c28.4008,6.3189 45.6792,19.8012 55.5933,37.989"/>
  <path class="fil2 str0" d="M540.267 1020.95c29.061,1.41142 48.3756,11.7685 61.2308,28.0122"/>
  <path class="fil2 str0" d="M531.684 1038.81c28.4008,6.3189 39.0768,22.4965 48.991,40.6855"/>
 </g>
</svg>
